<?xml version="1.0" standalone="no"?>
<!DOCTYPE svg PUBLIC "-//W3C//DTD SVG 20010904//EN"
 "http://www.w3.org/TR/2001/REC-SVG-20010904/DTD/svg10.dtd">
<svg version="1.0" xmlns="http://www.w3.org/2000/svg"
 width="3368.000000pt" height="2324.000000pt" viewBox="0 0 3368.000000 2324.000000"
 preserveAspectRatio="xMidYMid meet">

<g transform="translate(0.000000,2324.000000) scale(0.100000,-0.100000)"
fill="#000000" stroke="none">
<path d="M4480 23160 c0 -46 -4 -81 -10 -81 -5 -1 -37 -3 -70 -4 -33 -1 -64
-3 -70 -4 -6 -1 -10 -87 -10 -235 l0 -235 35 3 c19 2 37 1 40 -3 2 -4 -50 -7
-115 -6 l-120 1 0 -73 0 -73 -72 -1 c-40 -1 -257 -5 -483 -8 -286 -5 -9 -8
913 -9 924 -1 1322 1 1322 9 0 5 27 42 60 81 33 39 57 75 54 80 -3 5 -1 7 3 6
11 -3 62 55 153 172 19 25 41 50 49 56 8 7 11 16 6 24 -5 8 -4 11 2 7 11 -7
34 18 130 138 30 39 70 88 87 109 17 22 46 56 64 76 17 21 32 40 32 44 0 3
-450 6 -1000 6 l-1000 0 0 -80z"/>
<path d="M26530 22535 l0 -75 3175 0 3175 0 0 -2975 0 -2975 70 0 70 0 0 3050
0 3050 -3245 0 -3245 0 0 -75z"/>
<path d="M773 21435 c0 -22 2 -30 4 -17 2 12 2 30 0 40 -3 9 -5 -1 -4 -23z"/>
<path d="M790 20923 c0 -72 -2 -81 -20 -86 -18 -5 -20 -14 -20 -81 0 -72 -1
-76 -25 -82 -24 -6 -25 -10 -25 -79 0 -41 5 -77 10 -80 6 -3 10 -22 10 -41 0
-19 -4 -34 -10 -34 -5 0 -10 15 -10 34 0 19 -4 38 -10 41 -6 4 -10 -10 -10
-34 0 -34 -3 -41 -19 -41 -16 0 -20 8 -23 38 l-3 37 -70 0 c-38 0 -76 4 -82 8
-9 5 -13 33 -13 80 l0 72 -235 0 -235 0 0 -1762 c0 -970 2 -1763 3 -1763 2 0
183 180 403 400 l399 399 -4 1523 c-1 838 -5 1525 -7 1527 -2 2 -4 -32 -4 -76z"/>
<path d="M14615 19775 c-114 -21 -214 -63 -300 -124 -27 -19 -52 -38 -55 -41
-3 -3 -20 -16 -37 -29 -87 -60 -208 -260 -250 -412 -27 -96 -24 -298 6 -404
20 -74 92 -222 113 -236 5 -3 9 -10 7 -14 -3 -13 109 -133 170 -180 134 -102
314 -165 470 -165 l86 1 89 112 90 112 -175 6 c-151 6 -184 10 -249 33 -82 28
-193 98 -241 153 -236 270 -180 696 116 875 116 70 165 81 397 87 113 3 208 8
210 11 3 3 31 38 64 79 32 41 71 88 87 105 15 17 27 34 27 38 0 14 -548 8
-625 -7z"/>
<path d="M15903 19775 c-240 -52 -372 -312 -278 -547 23 -57 31 -69 71 -111
93 -97 231 -142 364 -119 80 14 194 67 226 105 23 27 24 35 24 156 0 115 -2
131 -21 155 -20 26 -22 26 -145 26 -111 0 -126 -2 -144 -20 -26 -26 -25 -60 0
-88 18 -19 32 -22 95 -22 l75 0 0 -49 c0 -104 -31 -126 -175 -126 -84 0 -93 2
-135 30 -83 57 -115 131 -108 252 6 92 41 154 112 198 44 27 58 30 130 30 69
0 89 -5 134 -28 58 -30 80 -29 112 6 23 24 25 54 6 79 -20 27 -105 65 -170 77
-73 14 -95 13 -173 -4z"/>
<path d="M17970 19720 c-15 -15 -20 -33 -20 -73 0 -48 -2 -53 -30 -65 -52 -24
-52 -90 0 -113 l28 -13 4 -181 c3 -155 6 -184 22 -207 31 -47 76 -68 146 -68
81 0 120 21 120 66 0 40 -30 61 -91 66 -41 3 -44 5 -51 39 -4 19 -6 90 -5 157
1 75 -2 123 -8 123 -5 1 21 5 59 9 55 5 73 12 88 30 24 30 23 46 -7 75 -20 21
-34 25 -79 25 -53 0 -54 0 -51 28 5 41 -13 100 -35 112 -30 16 -68 12 -90 -10z"/>
<path d="M16914 19580 c-28 -11 -64 -32 -81 -48 -36 -32 -95 -121 -88 -133 3
-4 1 -10 -5 -14 -14 -8 -11 -153 3 -190 40 -102 106 -164 202 -190 61 -16 175
-12 175 6 0 4 6 6 13 4 14 -5 85 42 101 68 15 24 -12 71 -43 75 -14 2 -42 -6
-63 -18 -80 -45 -193 -25 -232 40 -34 59 -34 59 179 62 216 3 215 3 215 69 0
97 -65 212 -144 255 -67 37 -161 42 -232 14z m189 -138 c18 -18 33 -40 34 -49
1 -10 3 -25 5 -33 2 -13 -18 -15 -129 -16 -125 -1 -133 0 -133 18 0 10 7 32
15 49 40 75 146 91 208 31z"/>
<path d="M17545 19594 c-112 -16 -155 -39 -155 -85 0 -45 37 -64 100 -50 69
15 124 14 165 -3 39 -16 55 -42 55 -86 0 -28 -2 -30 -21 -20 -38 21 -151 24
-211 6 -100 -29 -148 -86 -148 -176 0 -113 78 -183 203 -182 63 0 157 31 157
52 0 18 20 11 44 -16 28 -34 73 -35 98 -4 16 20 18 44 18 207 0 160 -2 190
-19 226 -23 51 -64 91 -111 110 -39 17 -129 27 -175 21z m140 -333 c28 -6 30
-9 27 -51 -5 -75 -79 -122 -168 -106 -61 12 -90 63 -68 121 15 37 120 55 209
36z"/>
<path d="M16406 19565 l-26 -24 0 -251 0 -251 27 -25 c20 -19 34 -24 53 -19
50 12 57 33 62 182 4 102 9 147 22 171 17 33 70 73 116 87 58 18 79 81 40 123
-35 38 -88 26 -143 -29 -32 -34 -37 -35 -37 -10 0 28 -39 71 -64 71 -13 0 -35
-11 -50 -25z"/>
<path d="M14773 19103 c-28 -4 -47 -21 -123 -116 l-90 -112 228 -5 227 -5 2
-217 c1 -120 5 -218 8 -219 4 0 56 60 116 135 l109 135 0 199 0 199 -37 7
c-40 6 -386 6 -440 -1z"/>
<path d="M15615 18915 l-25 -24 0 -344 c0 -259 3 -347 13 -360 11 -16 35 -17
256 -15 l244 3 20 27 c24 32 17 71 -16 90 -14 9 -81 15 -192 18 l-170 5 -5
298 c-5 281 -6 299 -24 313 -30 22 -74 17 -101 -11z"/>
<path d="M18342 18914 c-50 -35 -14 -124 50 -124 34 0 78 40 78 70 0 30 -44
70 -77 70 -16 0 -39 -7 -51 -16z"/>
<path d="M16355 18761 c-95 -26 -173 -94 -205 -177 -25 -67 -26 -171 -4 -238
24 -69 104 -148 173 -171 102 -34 244 -11 304 49 35 35 10 106 -37 106 -9 0
-38 -11 -64 -25 -26 -14 -64 -25 -85 -25 -72 0 -138 45 -152 103 l-7 27 195 0
c228 0 230 1 220 78 -15 117 -74 212 -156 251 -48 23 -138 33 -182 22z m138
-150 c18 -17 38 -46 44 -65 l11 -36 -134 0 c-85 0 -134 4 -134 10 0 6 6 26 14
45 32 76 137 100 199 46z"/>
<path d="M19318 18756 c-112 -31 -187 -119 -195 -231 -3 -35 0 -85 6 -111 44
-175 248 -256 393 -157 27 19 52 33 54 30 8 -8 -13 -87 -31 -113 -36 -56 -142
-70 -260 -33 -60 18 -69 19 -89 5 -45 -29 -36 -89 17 -114 52 -25 170 -44 232
-37 137 14 219 65 254 161 19 50 21 77 21 308 0 240 -1 254 -20 271 -36 33
-120 11 -120 -32 0 -18 -15 -17 -31 3 -40 48 -152 73 -231 50z m153 -126 c76
-21 123 -104 100 -179 -33 -111 -186 -144 -268 -59 -25 26 -28 36 -28 98 0 62
3 71 30 100 43 45 99 59 166 40z"/>
<path d="M16866 18746 c-53 -15 -76 -36 -76 -73 0 -33 39 -66 70 -58 14 3 57
8 96 12 99 8 154 -23 154 -87 0 -19 -4 -21 -25 -16 -14 4 -62 7 -107 7 -167 1
-248 -60 -248 -186 0 -124 87 -193 229 -183 50 4 78 12 109 32 l43 27 20 -25
c27 -34 71 -35 105 -1 l26 26 -4 187 c-5 232 -16 262 -114 323 -32 20 -54 24
-134 26 -58 2 -114 -3 -144 -11z m246 -334 c18 -18 -9 -89 -44 -115 -57 -43
-177 -28 -193 23 -11 34 5 79 33 95 33 19 184 17 204 -3z"/>
<path d="M17341 18724 c-20 -25 -21 -39 -21 -269 0 -230 1 -244 21 -269 16
-20 29 -26 59 -26 60 0 70 22 70 155 0 125 17 199 52 233 13 11 48 32 79 46
31 13 59 32 63 41 13 34 6 72 -17 93 -37 34 -77 29 -131 -19 -32 -29 -46 -36
-46 -24 0 8 -7 27 -16 40 -24 36 -85 35 -113 -1z"/>
<path d="M17953 18735 c-18 -8 -43 -23 -55 -35 l-22 -20 -24 30 c-31 40 -81
42 -111 4 -20 -25 -21 -39 -21 -269 0 -240 0 -242 23 -263 31 -29 77 -29 105
1 21 22 22 33 22 181 0 123 3 165 16 191 16 35 65 65 106 65 33 0 87 -36 98
-66 6 -14 10 -98 10 -188 0 -157 1 -163 23 -184 30 -28 76 -28 106 -1 22 21
22 24 19 223 -3 183 -5 205 -25 241 -26 50 -58 79 -102 94 -46 15 -129 13
-168 -4z"/>
<path d="M18765 18736 c-16 -7 -41 -23 -54 -35 -23 -20 -25 -21 -35 -4 -31 57
-102 58 -131 2 -12 -22 -15 -75 -15 -249 0 -230 6 -269 45 -284 31 -12 65 -6
85 14 18 18 20 33 20 174 0 114 4 163 15 190 25 59 87 87 150 66 57 -19 65
-46 73 -247 l7 -177 32 -19 c29 -17 34 -17 61 -3 16 8 32 23 36 31 3 9 6 103
6 208 0 166 -3 198 -19 232 -22 47 -64 89 -104 104 -39 15 -136 13 -172 -3z"/>
<path d="M18342 18717 c-21 -23 -22 -30 -22 -275 0 -248 0 -251 22 -266 35
-25 83 -20 107 10 20 25 21 39 21 256 0 181 -3 235 -15 257 -24 47 -78 56
-113 18z"/>
<path d="M5068 16384 c-181 -43 -311 -185 -370 -401 -29 -109 -29 -306 0 -415
35 -130 101 -235 192 -307 173 -137 494 -128 653 18 53 49 109 157 131 251 25
105 28 101 -60 98 l-76 -3 -19 -74 c-24 -96 -59 -153 -117 -196 -57 -41 -108
-55 -201 -55 -178 0 -313 119 -362 320 -19 77 -16 259 5 340 58 224 213 335
418 301 131 -22 197 -75 236 -191 l19 -55 64 -2 c91 -3 91 -3 73 59 -65 226
-208 330 -453 327 -42 0 -102 -7 -133 -15z"/>
<path d="M11366 16384 c-180 -43 -305 -180 -368 -400 -29 -102 -31 -303 -4
-404 42 -158 141 -298 253 -358 145 -77 354 -79 501 -5 84 42 137 97 181 188
24 51 61 180 61 215 0 7 -26 10 -77 8 l-77 -3 -17 -67 c-48 -191 -146 -266
-337 -256 -101 5 -163 31 -228 96 -88 89 -127 206 -127 382 0 172 34 285 110
370 86 96 192 133 318 112 135 -22 204 -76 241 -187 10 -28 22 -53 28 -58 6
-4 39 -6 74 -6 73 2 75 8 43 102 -68 197 -209 289 -440 286 -42 0 -102 -7
-135 -15z"/>
<path d="M16195 16394 c-130 -28 -209 -69 -296 -154 -113 -112 -169 -264 -169
-460 0 -365 226 -613 560 -614 170 -1 295 47 401 153 116 116 173 266 173 456
0 323 -163 553 -431 610 -63 14 -192 18 -238 9z m180 -135 c210 -39 338 -220
338 -479 0 -211 -84 -368 -238 -445 -57 -28 -66 -30 -180 -30 -115 0 -122 2
-180 32 -113 59 -188 161 -221 299 -24 103 -15 266 20 360 50 131 155 230 279
260 67 16 109 17 182 3z"/>
<path d="M18844 16385 c-215 -47 -360 -234 -394 -510 -19 -155 9 -328 72 -448
45 -85 137 -175 219 -215 98 -47 226 -62 345 -38 198 39 310 150 359 359 24
101 27 97 -64 97 l-78 0 -6 -44 c-16 -116 -75 -209 -161 -254 -46 -24 -61 -27
-156 -27 -92 0 -112 3 -160 26 -102 48 -176 150 -211 289 -19 76 -16 258 6
339 35 136 112 239 209 281 140 59 341 16 407 -89 17 -25 35 -65 41 -89 12
-49 25 -54 108 -48 30 2 56 4 57 5 6 4 -40 140 -63 181 -88 161 -300 235 -530
185z"/>
<path d="M20045 16390 c-172 -37 -307 -142 -380 -295 -52 -108 -68 -195 -62
-345 8 -197 55 -318 168 -431 157 -157 413 -200 638 -106 103 42 205 142 255
248 54 114 70 187 70 319 -2 300 -144 517 -391 596 -57 18 -241 27 -298 14z
m195 -130 c163 -31 280 -144 324 -311 68 -263 -24 -519 -221 -616 -53 -26 -67
-28 -173 -28 -108 0 -119 2 -180 31 -154 74 -239 233 -240 446 0 107 13 175
51 254 55 117 149 194 269 220 70 16 105 16 170 4z"/>
<path d="M27122 16380 c-185 -49 -309 -168 -375 -360 -39 -110 -48 -273 -23
-395 44 -218 190 -384 386 -439 234 -65 495 17 618 194 180 261 154 657 -59
870 -130 130 -348 182 -547 130z m234 -121 c113 -21 196 -76 260 -176 44 -68
61 -120 75 -225 27 -207 -46 -399 -188 -495 -76 -50 -146 -67 -258 -61 -233
13 -385 200 -385 478 0 253 129 439 332 479 62 12 96 12 164 0z"/>
<path d="M5910 15790 l0 -590 425 0 425 0 0 65 0 65 -350 0 -350 0 0 205 0
205 320 0 320 0 0 65 0 65 -320 0 -320 0 0 190 0 190 335 0 335 0 0 65 0 65
-410 0 -410 0 0 -590z"/>
<path d="M7000 15791 l0 -591 75 0 75 0 0 256 0 255 233 -3 c211 -3 235 -5
265 -23 61 -36 75 -79 83 -260 4 -88 12 -175 19 -192 l12 -33 93 0 c99 0 109
6 73 47 -37 42 -46 80 -53 208 -10 201 -34 264 -117 306 l-40 21 51 34 c28 19
64 53 80 75 83 113 60 315 -46 409 -81 71 -96 74 -470 78 l-333 3 0 -590z
m599 448 c94 -21 141 -86 140 -194 -1 -78 -18 -123 -60 -157 -48 -39 -111 -48
-335 -48 l-194 0 0 205 0 205 203 0 c111 0 222 -5 246 -11z"/>
<path d="M8050 16315 l0 -65 195 0 195 0 0 -525 0 -525 75 0 75 0 0 525 0 525
193 2 192 3 2 63 1 62 -464 0 -464 0 0 -65z"/>
<path d="M9170 15790 l0 -590 75 0 75 0 0 590 0 590 -75 0 -75 0 0 -590z"/>
<path d="M9600 15790 l0 -590 75 0 75 0 0 270 0 270 283 0 282 0 0 65 0 65
-282 0 -283 0 0 190 0 190 320 0 320 0 0 65 0 65 -395 0 -395 0 0 -590z"/>
<path d="M10610 15790 l0 -590 75 0 75 0 0 590 0 590 -75 0 -75 0 0 -590z"/>
<path d="M12502 16353 c-5 -16 -48 -136 -95 -268 -123 -346 -193 -541 -247
-695 -27 -74 -53 -148 -59 -163 l-11 -28 81 3 81 3 14 35 c7 19 34 96 60 170
26 74 52 138 58 143 6 4 109 6 230 5 l219 -3 23 -70 c13 -38 40 -118 60 -177
l37 -108 84 0 c45 0 83 2 83 3 0 2 -20 60 -44 128 -24 68 -76 216 -116 329
-39 113 -82 234 -95 270 -13 36 -47 133 -76 215 -28 83 -58 169 -66 193 l-15
42 -98 0 c-98 0 -98 0 -108 -27z m199 -411 l86 -257 -180 -3 c-99 -1 -182 0
-185 3 -3 3 14 58 37 122 119 329 146 401 151 396 3 -2 44 -120 91 -261z"/>
<path d="M13180 16315 l0 -65 195 0 195 0 0 -525 0 -525 75 0 75 0 0 525 0
525 193 0 194 0 2 65 2 65 -465 0 -466 0 0 -65z"/>
<path d="M14280 15790 l0 -590 425 0 425 0 0 65 0 65 -350 0 -350 0 0 205 0
205 320 0 320 0 0 65 0 65 -320 0 -320 0 0 190 0 190 335 0 335 0 0 65 0 65
-410 0 -410 0 0 -590z"/>
<path d="M17070 15790 l0 -590 75 0 75 0 0 270 0 270 284 0 284 0 1 65 1 65
-285 0 -285 0 0 190 0 190 320 0 320 0 0 65 0 65 -395 0 -395 0 0 -590z"/>
<path d="M20920 15790 l0 -590 70 0 70 0 2 487 3 487 47 -140 c25 -76 100
-295 165 -486 l118 -348 80 0 80 0 159 478 c149 449 181 533 175 472 -1 -14
-1 -233 -1 -487 l2 -463 70 0 70 0 0 590 0 591 -107 -3 -106 -3 -170 -510
c-143 -429 -172 -505 -180 -485 -12 33 -271 791 -309 908 l-30 92 -104 0 -104
0 0 -590z"/>
<path d="M22290 15790 l0 -590 75 0 75 0 0 249 0 250 233 3 c231 3 232 3 289
31 72 35 141 111 163 178 26 76 18 227 -15 292 -43 85 -108 137 -205 162 -46
12 -119 15 -337 15 l-278 0 0 -590z m540 449 c98 -21 154 -93 154 -199 0 -74
-17 -114 -64 -154 -55 -46 -118 -57 -306 -54 l-169 3 -3 208 -2 207 169 0 c94
0 193 -5 221 -11z"/>
<path d="M23355 16368 c-3 -7 -4 -272 -3 -588 l3 -575 368 -3 367 -2 0 65 0
65 -290 0 -290 0 0 525 0 525 -75 0 c-51 0 -77 -4 -80 -12z"/>
<path d="M24270 15790 l0 -590 425 0 425 0 0 65 0 65 -350 0 -350 0 0 205 0
205 324 0 324 0 -2 63 -1 62 -322 3 -323 2 0 190 0 190 335 0 335 0 0 65 0 65
-410 0 -410 0 0 -590z"/>
<path d="M25240 16315 l0 -65 195 0 195 0 0 -525 0 -525 75 0 75 0 0 525 0
525 195 0 195 0 0 65 0 65 -465 0 -465 0 0 -65z"/>
<path d="M26360 15790 l0 -590 75 0 75 0 0 590 0 590 -75 0 -75 0 0 -590z"/>
<path d="M28030 15790 l0 -590 70 0 70 0 2 477 3 476 114 -179 c63 -98 200
-313 304 -476 l190 -298 83 0 84 0 0 590 0 590 -70 0 -70 0 -2 -478 -3 -479
-305 478 -305 479 -82 0 -83 0 0 -590z"/>
<path d="M14860 12933 l0 -263 35 0 35 0 0 109 0 109 108 3 c94 4 111 7 141
28 57 41 77 121 46 193 -26 63 -52 72 -218 78 l-147 5 0 -262z m235 197 c74
-17 99 -90 51 -147 -23 -26 -29 -28 -120 -31 l-96 -4 0 89 c0 49 3 93 7 96 9
10 111 8 158 -3z"/>
<path d="M17974 13191 c-2 -2 -4 -44 -4 -93 l0 -89 -28 21 c-70 52 -176 24
-220 -57 -52 -94 -21 -251 58 -297 51 -30 119 -27 164 8 34 26 36 26 36 7 0
-16 6 -21 25 -21 l25 0 0 265 0 265 -26 -2 c-14 -2 -27 -4 -30 -7z m-56 -207
c77 -53 68 -229 -13 -266 -36 -16 -93 0 -118 34 -26 34 -35 135 -17 178 26 63
98 89 148 54z"/>
<path d="M17140 13100 c0 -47 -2 -50 -25 -50 -20 0 -25 -5 -25 -25 0 -20 5
-25 25 -25 l25 0 0 -159 c0 -168 1 -173 50 -184 41 -10 70 2 70 29 0 20 -5 24
-30 24 l-30 0 0 145 0 145 30 0 c25 0 30 4 30 25 0 21 -5 25 -30 25 -29 0 -30
1 -30 50 0 49 -1 50 -30 50 -29 0 -30 -1 -30 -50z"/>
<path d="M18340 13100 c0 -47 -2 -50 -25 -50 -20 0 -25 -5 -25 -25 0 -20 5
-25 25 -25 l25 0 0 -159 c0 -170 1 -172 53 -185 42 -10 67 1 67 30 0 20 -5 24
-30 24 l-30 0 0 145 0 145 30 0 c25 0 30 4 30 25 0 21 -5 25 -30 25 -29 0 -30
1 -30 50 0 49 -1 50 -30 50 -29 0 -30 -1 -30 -50z"/>
<path d="M15440 13043 c-14 -10 -33 -27 -42 -38 -17 -20 -17 -19 -18 13 0 30
-2 33 -27 30 -16 -2 -27 -6 -25 -10 1 -5 2 -89 2 -188 l0 -180 30 0 30 0 0
129 c0 124 1 131 25 160 17 19 37 31 58 33 28 3 32 7 32 33 0 37 -28 44 -65
18z"/>
<path d="M15635 13037 c-60 -34 -88 -93 -88 -181 0 -115 48 -183 139 -201 75
-14 168 39 180 101 6 30 5 31 -25 26 -18 -2 -33 -12 -36 -23 -8 -25 -55 -49
-96 -49 -43 0 -99 56 -99 99 l0 31 136 0 136 0 -4 60 c-5 70 -26 104 -84 137
-50 29 -108 29 -159 0z m141 -55 c25 -19 44 -53 44 -76 0 -14 -16 -16 -106
-16 l-106 0 7 28 c3 15 18 39 33 55 31 32 94 37 128 9z"/>
<path d="M16033 13049 c-46 -13 -83 -62 -83 -108 0 -54 33 -84 117 -106 82
-21 113 -39 113 -65 0 -70 -144 -83 -170 -15 -7 19 -17 25 -40 25 -37 0 -40
-22 -7 -71 45 -67 173 -75 245 -14 34 28 44 63 31 109 -11 39 -50 63 -132 82
-92 22 -118 53 -77 94 13 13 33 20 60 20 39 0 80 -26 80 -50 0 -5 14 -10 30
-10 36 0 39 20 10 67 -28 47 -101 64 -177 42z"/>
<path d="M16425 13053 c-71 -18 -118 -99 -118 -204 0 -120 62 -191 166 -192
63 -1 111 22 137 66 27 44 25 57 -8 57 -21 0 -33 -7 -43 -26 -15 -29 -46 -44
-91 -44 -42 0 -98 57 -98 99 l0 31 135 0 135 0 0 45 c0 121 -98 197 -215 168z
m111 -71 c25 -19 44 -53 44 -76 0 -14 -16 -16 -105 -16 -100 0 -105 1 -105 21
0 12 15 36 34 55 27 27 42 34 73 34 21 0 48 -8 59 -18z"/>
<path d="M16840 13039 c-19 -12 -40 -29 -47 -38 -11 -14 -12 -11 -13 17 0 27
-4 32 -25 32 l-25 0 0 -190 0 -190 29 0 29 0 4 139 c3 130 5 141 26 164 42 45
118 40 141 -9 6 -15 11 -80 11 -159 l0 -135 30 0 30 0 0 145 c0 172 -10 208
-64 230 -49 21 -85 19 -126 -6z"/>
<path d="M17415 13046 c-73 -32 -107 -94 -107 -192 -1 -72 28 -144 66 -169 41
-27 102 -37 149 -24 51 14 107 67 107 103 0 24 -3 26 -27 20 -16 -4 -30 -12
-32 -17 -12 -32 -52 -57 -92 -57 -53 0 -109 51 -109 99 l0 31 140 0 140 0 -5
28 c-2 15 -7 44 -10 64 -15 96 -129 154 -220 114z m121 -64 c25 -19 44 -53 44
-76 0 -14 -16 -16 -106 -16 l-106 0 6 28 c4 15 20 39 37 55 35 32 92 36 125 9z"/>
<path d="M18608 13047 c-72 -33 -101 -86 -102 -187 -1 -131 59 -203 169 -203
107 0 165 69 165 197 0 92 -27 151 -85 183 -44 25 -104 29 -147 10z m121 -63
c72 -51 66 -224 -9 -261 -41 -21 -77 -15 -112 16 -29 25 -32 35 -36 94 -5 81
0 106 32 140 30 32 88 37 125 11z"/>
<path d="M12330 11405 l0 -435 50 0 50 0 2 364 3 365 89 -262 c48 -144 104
-308 124 -364 l36 -103 55 0 56 0 119 360 c66 198 124 360 128 360 5 0 7 -162
6 -360 l-3 -360 48 0 c26 0 47 3 47 8 0 4 0 198 1 432 l0 425 -73 3 -73 3
-125 -376 c-68 -206 -127 -375 -131 -375 -3 0 -17 35 -31 78 -15 42 -71 209
-127 371 -56 161 -101 295 -101 297 0 2 -34 4 -75 4 l-75 0 0 -435z"/>
<path d="M16920 11405 l0 -435 50 0 50 0 0 213 c0 201 1 215 23 257 39 78 142
114 217 75 59 -30 60 -37 60 -303 l0 -243 48 3 47 3 3 249 c2 235 1 251 -19
292 -30 63 -75 87 -167 91 -87 4 -137 -15 -184 -70 l-28 -31 0 167 0 167 -50
0 -50 0 0 -435z"/>
<path d="M17930 11405 l0 -435 50 0 50 0 2 368 3 367 103 -305 c56 -168 113
-333 125 -367 l22 -63 55 0 55 0 120 361 c66 198 123 363 127 365 5 3 8 -159
8 -360 l0 -366 50 0 50 0 0 435 0 435 -77 0 -78 0 -124 -375 c-69 -206 -127
-375 -131 -375 -3 0 -33 82 -67 183 -106 313 -163 480 -179 525 l-16 42 -74 0
-74 0 0 -435z"/>
<path d="M20000 11678 l0 -163 -26 28 c-55 59 -164 83 -255 55 -56 -16 -110
-67 -144 -133 -24 -48 -30 -74 -33 -148 -11 -230 87 -367 263 -367 66 0 120
22 168 68 l37 36 0 -42 0 -42 40 0 40 0 0 435 0 435 -45 0 -45 0 0 -162z m-95
-177 c84 -48 117 -200 74 -346 -14 -50 -64 -100 -115 -115 -87 -26 -188 37
-213 133 -14 58 -14 155 0 212 30 119 152 175 254 116z"/>
<path d="M13459 11601 c-32 -10 -70 -31 -86 -46 -25 -26 -53 -81 -53 -107 0
-26 3 -28 43 -28 39 0 45 3 58 32 29 64 109 92 197 69 60 -17 82 -44 82 -103
0 -63 -18 -74 -155 -93 -129 -18 -183 -40 -221 -90 -39 -51 -46 -137 -15 -192
34 -60 82 -87 161 -91 80 -5 122 7 190 53 45 30 50 32 50 14 0 -11 11 -31 25
-45 22 -21 33 -25 78 -22 50 3 52 4 55 33 3 27 -1 32 -30 40 l-33 10 -5 230
c-6 266 -9 278 -94 320 -42 21 -63 25 -135 24 -48 0 -98 -4 -112 -8z m242
-401 c-3 -88 -7 -98 -62 -136 -38 -26 -50 -29 -122 -29 -74 0 -80 2 -103 28
-36 43 -34 107 6 140 16 14 53 30 82 37 138 29 184 37 192 36 5 -1 8 -35 7
-76z"/>
<path d="M15443 11590 c-18 -11 -45 -38 -60 -59 -16 -22 -31 -40 -35 -41 -4 0
-8 24 -10 53 l-3 52 -37 3 -38 3 0 -315 0 -316 44 0 45 0 3 208 c3 183 5 211
23 246 27 53 63 78 124 84 l51 5 0 48 0 49 -37 0 c-21 0 -53 -9 -70 -20z"/>
<path d="M15800 11592 c-119 -44 -187 -175 -178 -340 7 -113 34 -177 100 -237
63 -56 101 -69 198 -63 120 7 198 62 234 166 l15 42 -48 0 c-49 0 -70 -17 -54
-42 3 -6 2 -8 -3 -5 -6 3 -19 -8 -29 -24 -39 -58 -136 -75 -212 -38 -53 26
-88 77 -101 148 l-9 51 226 1 c124 1 230 1 235 0 5 -1 6 33 3 81 -14 179 -114
279 -277 277 -30 0 -75 -8 -100 -17z m177 -81 c50 -23 92 -82 100 -140 l6 -41
-182 0 c-202 0 -192 -4 -165 73 36 105 142 152 241 108z"/>
<path d="M16413 11590 c-65 -26 -98 -65 -112 -129 -12 -59 4 -121 41 -152 30
-25 106 -53 199 -73 42 -10 90 -26 107 -37 28 -16 32 -24 32 -62 0 -52 -24
-81 -77 -96 -58 -16 -112 -13 -159 10 -34 16 -45 28 -57 62 -7 23 -17 41 -20
40 -4 -2 -25 -3 -47 -3 -35 0 -40 -3 -40 -22 1 -37 35 -102 69 -131 44 -37
102 -50 202 -45 71 3 93 9 132 32 61 35 97 91 97 150 0 112 -40 146 -225 192
-128 32 -159 54 -159 109 0 28 7 43 27 61 34 29 106 40 157 25 39 -11 80 -51
80 -77 0 -10 14 -14 50 -14 59 0 60 5 24 78 -35 71 -80 94 -189 99 -63 2 -91
-1 -132 -17z"/>
<path d="M19046 11595 c-66 -23 -126 -94 -126 -150 0 -23 4 -25 43 -25 39 0
45 3 60 35 21 44 53 64 114 72 56 6 118 -10 145 -37 22 -24 33 -83 19 -109
-17 -31 -41 -40 -157 -56 -128 -18 -182 -40 -219 -89 -50 -66 -44 -174 13
-231 43 -43 88 -57 172 -53 69 3 80 6 138 45 50 34 62 38 62 24 0 -10 11 -30
25 -45 20 -21 33 -26 72 -26 26 0 54 4 62 9 20 13 6 61 -18 61 -10 0 -25 8
-34 18 -15 16 -17 47 -17 231 0 201 -1 216 -22 252 -34 61 -100 89 -207 89
-48 -1 -103 -7 -125 -15z m260 -387 c-3 -87 -11 -105 -67 -144 -38 -26 -50
-29 -122 -29 -74 0 -80 2 -103 28 -36 43 -34 107 6 140 16 14 53 30 82 37 112
23 183 37 195 39 8 1 11 -21 9 -71z"/>
<path d="M20358 11584 c-49 -23 -61 -34 -83 -77 -38 -77 -35 -87 25 -87 43 0
50 3 50 19 0 31 55 78 100 86 79 13 173 -17 184 -59 3 -12 6 -38 6 -58 0 -52
-23 -64 -155 -83 -191 -27 -260 -79 -260 -197 0 -47 5 -64 30 -99 42 -58 85
-79 166 -79 79 0 121 13 173 54 37 29 40 29 50 11 30 -52 54 -66 109 -63 51 3
52 4 55 36 3 26 0 32 -15 32 -10 0 -29 7 -41 16 -22 15 -22 19 -22 235 0 245
-2 255 -66 304 -35 27 -45 29 -143 32 -98 4 -110 2 -163 -23z m282 -368 c0
-71 -12 -112 -38 -133 -98 -80 -261 -67 -277 21 -16 85 31 128 162 147 49 7
97 16 108 20 41 16 45 12 45 -55z"/>
<path d="M13940 11583 c0 -10 45 -151 101 -315 l101 -298 -27 -69 c-14 -38
-33 -75 -40 -81 -8 -7 -35 -12 -60 -13 l-45 -1 0 -37 c0 -28 5 -41 19 -49 28
-15 67 -12 104 6 65 33 80 55 126 182 91 250 241 660 247 675 6 16 1 17 -41
13 -26 -2 -51 -8 -56 -13 -4 -4 -41 -102 -82 -218 -94 -265 -94 -264 -100
-245 -3 8 -13 38 -23 65 -10 28 -19 55 -20 60 -1 6 -15 51 -32 100 -17 50 -40
122 -51 162 -12 40 -26 75 -32 79 -6 3 -28 8 -50 10 -31 3 -39 0 -39 -13z"/>
<path d="M14580 11342 c0 -252 1 -260 23 -303 31 -58 72 -81 158 -87 85 -6
145 14 188 64 17 19 34 34 38 34 5 0 7 -18 5 -40 l-4 -40 46 0 46 0 0 315 0
315 -50 0 -50 0 0 -215 c0 -198 -2 -219 -21 -260 -28 -60 -69 -87 -137 -93
-64 -5 -113 15 -131 54 -7 16 -11 109 -11 263 0 264 3 251 -66 251 l-34 0 0
-258z"/>
<path d="M20860 11586 c0 -6 13 -47 29 -91 15 -44 63 -180 106 -302 l79 -223
48 0 c58 0 50 -14 153 260 42 113 83 219 91 235 17 38 44 115 44 126 0 5 -22
9 -49 9 -44 0 -50 -3 -59 -27 -30 -81 -145 -413 -154 -445 -6 -21 -13 -38 -17
-38 -3 0 -43 115 -89 256 l-83 255 -50 -2 c-27 -2 -49 -7 -49 -13z"/>
<path d="M9224 9641 c-2 -2 -4 -121 -4 -263 l0 -258 35 0 35 0 0 120 0 120
125 0 125 0 0 30 0 30 -125 0 -125 0 0 85 0 85 141 0 140 0 -3 26 -3 26 -168
2 c-93 0 -171 -1 -173 -3z"/>
<path d="M13144 9636 c-33 -15 -44 -38 -44 -98 0 -34 -3 -38 -25 -38 -20 0
-25 -5 -25 -25 0 -20 5 -25 25 -25 l25 0 0 -165 0 -165 30 0 30 0 0 165 0 165
30 0 c25 0 30 4 30 25 0 21 -5 25 -31 25 -29 0 -30 1 -27 43 3 38 6 42 31 45
24 3 28 7 25 30 -4 32 -28 38 -74 18z"/>
<path d="M13692 9641 c-10 -6 -12 -62 -10 -262 l3 -254 33 -3 32 -3 0 259 c0
228 -2 261 -16 266 -20 8 -26 7 -42 -3z"/>
<path d="M13852 9642 c-9 -3 -12 -69 -12 -263 l0 -259 35 0 35 0 0 259 0 259
-23 4 c-12 2 -28 3 -35 0z"/>
<path d="M16335 9638 c-2 -7 -6 -127 -7 -266 l-3 -252 33 0 32 0 0 259 c0 227
-2 260 -16 265 -24 9 -34 7 -39 -6z"/>
<path d="M17093 9643 c-7 -2 -13 -20 -13 -39 0 -31 3 -34 30 -34 27 0 30 3 30
34 0 22 -6 36 -16 40 -9 3 -16 6 -17 5 -1 0 -8 -3 -14 -6z"/>
<path d="M18909 9639 c-32 -12 -49 -47 -49 -99 0 -36 -3 -40 -25 -40 -20 0
-25 -5 -25 -25 0 -20 5 -25 25 -25 l25 0 0 -165 0 -165 30 0 30 0 0 165 0 165
30 0 c25 0 30 4 30 25 0 21 -5 25 -31 25 -29 0 -30 1 -27 43 3 38 6 42 31 45
24 3 28 7 25 30 -3 30 -26 37 -69 21z"/>
<path d="M21255 9644 c-6 -2 -9 -20 -7 -39 4 -31 8 -35 33 -35 26 0 29 3 29
35 0 19 -4 35 -9 35 -5 0 -15 2 -23 4 -7 3 -18 2 -23 0z"/>
<path d="M21090 9380 l0 -260 30 0 30 0 0 260 0 260 -30 0 -30 0 0 -260z"/>
<path d="M16900 9550 c0 -47 -2 -50 -25 -50 -34 0 -37 -47 -2 -52 22 -3 22 -6
25 -157 1 -88 7 -160 13 -167 14 -17 63 -27 89 -19 13 4 20 15 20 31 0 20 -5
24 -30 24 l-30 0 0 145 0 145 30 0 c25 0 30 4 30 25 0 21 -5 25 -30 25 -29 0
-30 1 -30 50 0 49 -1 50 -30 50 -29 0 -30 -1 -30 -50z"/>
<path d="M9735 9499 c-63 -18 -104 -80 -112 -168 -10 -108 30 -185 112 -216
77 -30 166 3 202 75 26 52 25 182 -3 235 -34 67 -117 98 -199 74z m129 -79
c44 -52 47 -151 6 -217 -22 -37 -54 -48 -106 -39 -85 16 -111 190 -39 262 37
37 105 34 139 -6z"/>
<path d="M10141 9474 l-41 -36 0 31 c0 26 -4 31 -25 31 l-25 0 0 -190 0 -190
30 0 30 0 0 129 c0 124 1 131 25 160 17 19 37 31 58 33 28 3 32 7 32 33 0 45
-34 45 -84 -1z"/>
<path d="M10545 9495 c-22 -8 -41 -15 -42 -15 -10 -1 -33 -66 -33 -95 0 -49
34 -79 118 -100 86 -23 112 -39 112 -70 0 -67 -145 -76 -170 -10 -12 32 -70
37 -70 6 0 -37 43 -85 90 -99 121 -35 237 42 209 141 -11 41 -57 68 -146 87
-28 6 -59 20 -69 31 -17 19 -17 23 -3 47 25 46 121 43 139 -3 7 -19 17 -25 40
-25 34 0 38 15 15 59 -16 31 -77 61 -123 61 -15 -1 -45 -7 -67 -15z"/>
<path d="M11316 9490 c-65 -33 -94 -89 -95 -186 -1 -75 17 -121 62 -161 41
-36 93 -48 144 -33 59 16 93 52 107 113 6 25 4 27 -24 27 -24 0 -32 -6 -44
-34 -16 -39 -42 -56 -83 -56 -80 0 -124 101 -93 212 21 74 106 103 155 53 14
-13 25 -31 25 -40 0 -10 10 -15 30 -15 24 0 30 4 30 20 0 39 -30 81 -73 101
-54 24 -93 24 -141 -1z"/>
<path d="M11685 9496 c-73 -31 -110 -111 -103 -217 8 -113 65 -173 164 -173
65 0 117 33 139 87 21 51 19 57 -14 57 -22 0 -31 -6 -41 -30 -16 -39 -46 -60
-85 -60 -82 0 -126 99 -95 212 13 46 52 78 95 78 38 0 85 -33 85 -61 0 -14 7
-19 30 -19 25 0 30 4 30 24 0 12 -10 38 -23 57 -35 53 -118 73 -182 45z"/>
<path d="M12039 9487 c-61 -32 -92 -94 -92 -185 0 -109 50 -181 139 -198 70
-13 166 39 180 99 6 25 4 27 -25 27 -17 0 -31 -5 -31 -10 0 -6 -11 -22 -25
-35 -38 -39 -97 -35 -141 9 -24 24 -34 43 -34 65 l0 31 134 0 c152 0 148 -2
134 80 -11 59 -34 90 -88 118 -56 28 -95 28 -151 -1z m131 -50 c25 -19 50 -60
50 -79 0 -16 -11 -18 -106 -18 l-106 0 6 28 c10 43 60 82 104 82 20 0 44 -6
52 -13z"/>
<path d="M12433 9499 c-41 -12 -83 -62 -83 -99 0 -67 33 -96 135 -121 68 -16
95 -34 95 -64 0 -67 -145 -76 -170 -10 -7 19 -17 25 -41 25 -29 0 -30 -1 -24
-32 16 -72 93 -108 190 -88 69 14 107 53 109 110 1 57 -37 91 -130 114 -100
25 -126 54 -84 96 14 14 33 20 65 20 41 0 48 -4 63 -30 12 -22 24 -30 45 -30
31 0 35 16 12 59 -25 49 -107 72 -182 50z"/>
<path d="M12795 9499 c-73 -22 -104 -86 -74 -153 12 -24 72 -56 134 -70 66
-15 85 -27 85 -57 0 -34 -32 -59 -77 -59 -48 0 -82 17 -93 45 -7 19 -17 25
-41 25 -29 0 -31 -2 -25 -27 11 -46 41 -77 87 -91 85 -25 178 8 205 74 32 76
-16 127 -143 154 -28 6 -59 20 -69 31 -17 19 -17 23 -3 47 25 46 121 43 139
-3 7 -19 17 -25 41 -25 30 0 31 1 25 33 -13 68 -101 103 -191 76z"/>
<path d="M14645 9496 c-116 -52 -143 -249 -47 -349 69 -72 203 -52 243 36 25
57 24 67 -10 67 -22 0 -31 -6 -41 -30 -35 -83 -140 -80 -176 6 -28 66 -11 169
33 204 48 37 123 19 143 -36 13 -34 60 -34 60 0 0 82 -118 141 -205 102z"/>
<path d="M15016 9500 c-35 -11 -72 -45 -94 -85 -25 -46 -23 -180 4 -225 71
-122 246 -113 300 16 23 55 18 163 -9 215 -39 73 -117 104 -201 79z m122 -72
c41 -45 53 -114 32 -190 -25 -90 -137 -106 -185 -26 -37 63 -17 198 32 227 33
19 98 13 121 -11z"/>
<path d="M15450 9499 c-14 -5 -35 -20 -47 -31 l-23 -21 0 26 c0 22 -5 27 -25
27 l-25 0 0 -190 0 -190 30 0 30 0 0 139 c0 131 1 141 23 165 12 14 31 26 42
27 84 7 95 -16 95 -196 l0 -136 28 3 27 3 5 141 c4 119 8 145 23 162 10 11 26
22 35 24 26 7 79 -10 86 -27 3 -8 6 -80 7 -160 l1 -145 29 0 29 0 0 164 c0
160 -1 166 -24 193 -21 24 -32 28 -78 28 -40 0 -61 -6 -86 -24 l-33 -23 -24
22 c-27 25 -88 35 -125 19z"/>
<path d="M16040 9499 c-14 -5 -35 -20 -47 -31 l-23 -21 0 27 c0 24 -3 27 -27
24 l-28 -3 0 -265 0 -265 30 0 30 0 0 85 c0 47 2 87 5 89 3 3 18 -4 35 -15 74
-48 177 -10 216 80 39 92 13 230 -51 276 -34 24 -105 34 -140 19z m102 -68
c26 -21 48 -79 48 -129 0 -104 -89 -175 -158 -126 -36 25 -52 68 -52 138 0 59
3 69 31 101 25 28 38 35 69 35 22 0 47 -8 62 -19z"/>
<path d="M16559 9487 c-62 -32 -92 -94 -91 -186 1 -142 92 -223 212 -191 76
20 141 110 90 123 -12 3 -26 -1 -33 -10 -43 -53 -57 -63 -94 -63 -21 0 -49 7
-61 16 -26 18 -52 65 -52 94 0 19 6 20 133 20 74 0 136 2 139 5 10 11 -12 120
-29 144 -24 33 -98 71 -139 71 -17 0 -51 -10 -75 -23z m137 -55 c25 -19 44
-53 44 -76 0 -14 -16 -16 -106 -16 l-106 0 6 28 c4 15 20 39 37 55 35 32 92
36 125 9z"/>
<path d="M17367 9495 c-16 -8 -37 -25 -47 -37 l-19 -23 -1 33 c0 27 -4 32 -25
32 l-25 0 0 -190 0 -190 29 0 29 0 4 140 c3 135 4 140 29 165 41 42 116 35
137 -11 7 -15 12 -79 12 -159 l0 -135 30 0 30 0 0 153 c0 171 -6 192 -60 219
-43 22 -86 23 -123 3z"/>
<path d="M17714 9491 c-62 -28 -87 -76 -92 -175 -3 -71 -1 -87 20 -126 45 -86
149 -112 212 -53 15 14 30 23 33 19 3 -3 2 -25 -1 -49 -8 -51 -36 -82 -82 -91
-40 -9 -100 15 -109 43 -4 15 -15 21 -36 21 -35 0 -37 -15 -6 -61 44 -65 191
-75 244 -16 45 49 48 64 51 285 l4 213 -28 -3 c-21 -2 -30 -10 -34 -28 -5 -19
-7 -21 -12 -9 -8 20 -68 49 -100 49 -12 0 -41 -9 -64 -19z m118 -52 c24 -13
58 -84 58 -124 0 -87 -45 -155 -102 -155 -66 0 -108 57 -108 145 0 109 75 175
152 134z"/>
<path d="M18339 9501 c-48 -15 -71 -33 -85 -66 -19 -46 -19 -45 21 -45 24 0
35 5 35 14 0 29 30 46 81 46 69 0 109 -43 81 -88 -5 -7 -45 -19 -90 -27 -91
-16 -114 -25 -136 -57 -23 -32 -20 -100 5 -131 39 -51 134 -56 198 -11 22 16
24 16 33 1 14 -25 45 -38 73 -31 30 8 34 40 5 49 -19 6 -20 15 -20 133 0 150
-13 190 -70 209 -40 13 -93 15 -131 4z m141 -237 c0 -19 -5 -44 -10 -55 -25
-45 -125 -65 -162 -32 -10 9 -18 29 -18 44 0 34 22 48 100 65 87 19 90 19 90
-22z"/>
<path d="M19140 9474 l-40 -36 0 31 c0 26 -4 31 -25 31 l-25 0 0 -190 0 -190
29 0 29 0 4 135 c3 151 12 170 79 184 29 6 34 11 37 39 3 28 0 32 -22 32 -16
0 -42 -14 -66 -36z"/>
<path d="M19359 9487 c-61 -33 -91 -92 -90 -181 0 -75 17 -122 57 -160 81 -75
225 -44 263 55 5 15 8 29 5 31 -9 10 -64 -5 -64 -17 0 -25 -51 -55 -92 -55
-52 0 -108 51 -108 99 l0 31 141 0 141 0 -7 53 c-12 86 -50 138 -116 157 -52
15 -82 12 -130 -13z m137 -55 c25 -19 44 -53 44 -76 0 -14 -16 -16 -105 -16
l-105 0 6 28 c3 15 19 39 35 55 35 32 92 36 125 9z"/>
<path d="M19765 9490 c-62 -31 -89 -79 -93 -166 -5 -86 9 -132 49 -172 67 -65
180 -63 239 4 16 19 30 41 30 49 0 8 0 18 0 22 0 7 -16 8 -50 4 -5 0 -10 -7
-10 -15 0 -45 -102 -73 -148 -40 -26 18 -52 65 -52 94 0 19 6 20 141 20 l141
0 -7 53 c-12 86 -50 138 -116 157 -50 15 -79 12 -124 -10z m131 -58 c25 -19
44 -53 44 -76 0 -14 -16 -16 -105 -16 l-105 0 6 28 c3 15 19 39 35 55 35 32
92 36 125 9z"/>
<path d="M20376 9500 c-69 -21 -109 -93 -109 -196 0 -95 28 -149 96 -183 37
-18 56 -22 90 -17 98 15 148 82 149 202 1 146 -98 232 -226 194z m128 -79 c23
-24 29 -41 33 -95 6 -74 -6 -116 -45 -146 -37 -29 -85 -26 -124 9 -32 29 -33
31 -33 116 0 85 1 87 33 116 45 40 98 40 136 0z"/>
<path d="M20825 9503 c-11 -3 -35 -19 -52 -36 l-33 -31 0 32 c0 27 -4 32 -25
32 l-25 0 0 -190 0 -190 29 0 29 0 4 134 c3 118 6 138 24 163 37 49 126 47
145 -4 5 -13 9 -85 9 -159 l0 -134 31 0 30 0 -3 165 c-3 160 -4 165 -28 190
-26 25 -93 40 -135 28z"/>
<path d="M21545 9503 c-11 -3 -35 -19 -52 -36 l-33 -31 0 32 c0 27 -4 32 -25
32 l-25 0 0 -190 0 -190 30 0 30 0 0 129 c0 117 2 131 23 162 37 55 127 56
148 2 5 -13 9 -85 9 -159 l0 -134 31 0 30 0 -3 165 c-3 160 -4 165 -28 190
-26 25 -93 40 -135 28z"/>
<path d="M21883 9489 c-58 -28 -93 -98 -93 -185 0 -76 11 -109 53 -152 77 -80
212 -59 263 41 12 22 13 32 4 37 -17 10 -60 0 -60 -15 0 -8 -12 -23 -26 -34
-32 -25 -90 -28 -122 -5 -26 18 -52 65 -52 94 0 19 6 20 141 20 l141 0 -7 53
c-10 75 -45 131 -95 151 -54 22 -97 20 -147 -5z m141 -61 c15 -13 29 -38 32
-55 l7 -33 -107 0 c-58 0 -106 2 -106 5 0 20 32 75 51 89 34 24 93 21 123 -6z"/>
<path d="M22496 9500 c-63 -20 -103 -79 -112 -167 -16 -152 80 -257 206 -224
53 14 78 34 96 78 22 50 18 63 -16 63 -21 0 -30 -5 -30 -16 0 -25 -56 -74 -85
-74 -83 0 -128 83 -105 194 14 67 44 96 100 96 37 0 70 -24 83 -62 4 -12 17
-18 37 -18 28 0 30 2 24 28 -9 37 -30 69 -57 87 -30 19 -103 27 -141 15z"/>
<path d="M22856 9500 c-98 -30 -143 -190 -85 -307 59 -119 229 -121 290 -2 32
63 31 170 -2 230 -40 73 -119 104 -203 79z m129 -80 c25 -26 30 -40 33 -95 7
-103 -32 -165 -103 -165 -71 0 -110 62 -103 166 4 60 7 70 36 95 45 41 98 40
137 -1z"/>
<path d="M23660 9474 l-40 -36 0 31 c0 26 -4 31 -25 31 l-25 0 0 -190 0 -190
29 0 29 0 4 134 c3 126 5 136 27 160 17 18 35 26 58 26 31 0 33 2 33 35 0 31
-3 35 -25 35 -15 0 -41 -15 -65 -36z"/>
<path d="M23871 9497 c-46 -16 -76 -58 -76 -107 0 -56 27 -78 126 -106 76 -22
109 -42 109 -66 0 -5 -11 -20 -25 -33 -41 -42 -139 -28 -151 22 -5 18 -13 23
-40 23 -38 0 -41 -8 -18 -56 23 -48 65 -68 139 -68 74 1 120 23 142 69 36 75
-15 143 -119 159 -66 11 -98 32 -98 66 0 35 23 50 78 50 38 0 72 -22 72 -48 0
-7 14 -12 30 -12 25 0 30 4 30 24 0 71 -106 116 -199 83z"/>
<path d="M24265 9499 c-38 -11 -89 -64 -104 -108 -14 -42 -14 -124 -1 -173 23
-81 119 -132 205 -108 42 12 105 66 105 90 0 4 2 15 5 22 4 10 -3 14 -25 13
-20 0 -32 -6 -36 -17 -9 -30 -54 -58 -93 -58 -46 0 -79 23 -97 66 -27 65 -29
64 126 64 l140 0 0 28 c0 135 -102 217 -225 181z m126 -78 c17 -17 29 -40 29
-55 l0 -26 -105 0 c-58 0 -105 2 -105 5 0 3 6 21 14 39 30 71 114 90 167 37z"/>
<path d="M10842 9331 c3 -150 5 -171 22 -190 45 -50 153 -47 202 6 l24 26 0
-27 c0 -21 5 -26 25 -26 l25 0 0 190 0 190 -30 0 -30 0 0 -125 c0 -174 -20
-215 -102 -215 -68 0 -73 10 -76 184 l-3 156 -30 0 -30 0 3 -169z"/>
<path d="M13282 9331 c3 -150 5 -171 22 -190 43 -47 140 -47 200 0 l26 20 0
-20 c0 -16 6 -21 25 -21 l25 0 0 190 0 190 -30 0 -30 0 0 -130 c0 -172 -19
-210 -102 -210 -68 0 -78 25 -78 199 l0 141 -31 0 -30 0 3 -169z"/>
<path d="M13978 9495 c-4 -4 22 -90 57 -193 l64 -185 -22 -46 c-17 -36 -28
-47 -52 -51 -39 -7 -45 -36 -12 -51 21 -9 33 -8 63 7 38 19 39 21 130 267 93
253 95 265 48 255 -19 -3 -34 -37 -85 -185 -17 -51 -34 -93 -38 -93 -4 0 -27
62 -52 138 -41 124 -48 137 -70 140 -14 2 -28 0 -31 -3z"/>
<path d="M17087 9493 c-4 -3 -7 -89 -7 -190 l0 -183 30 0 30 0 0 190 0 190
-23 0 c-13 0 -27 -3 -30 -7z"/>
<path d="M21250 9311 l0 -191 30 0 30 0 -2 188 -3 187 -27 3 -28 3 0 -190z"/>
<path d="M23169 9368 c-2 -224 3 -240 73 -259 48 -13 86 -5 133 26 33 23 35
23 35 5 0 -16 7 -20 30 -20 l30 0 -2 188 -3 187 -27 3 -28 3 0 -103 c-1 -184
-25 -238 -105 -238 -69 0 -75 14 -75 172 0 75 -3 143 -6 152 -3 9 -17 16 -30
16 l-24 0 -1 -132z"/>
<path d="M12970 8135 l0 -305 40 0 40 0 0 130 0 130 115 0 c129 0 163 10 210
59 26 28 30 40 33 104 3 65 1 76 -24 114 -42 64 -75 73 -259 73 l-155 0 0
-305z m330 209 c11 -11 23 -37 27 -57 15 -96 -26 -127 -174 -127 l-103 0 0
106 0 106 115 -4 c100 -3 117 -6 135 -24z"/>
<path d="M14170 8135 l0 -305 35 0 35 0 0 146 c0 163 11 204 61 229 34 18 88
19 110 2 34 -26 39 -55 39 -216 l0 -161 36 0 36 0 -4 188 c-3 168 -5 190 -23
214 -24 33 -63 48 -122 48 -48 0 -75 -11 -110 -43 l-23 -20 0 111 0 112 -35 0
-35 0 0 -305z"/>
<path d="M15820 8136 l0 -306 40 0 40 0 0 130 0 130 113 0 c97 0 119 3 157 23
68 34 85 65 85 152 0 80 -13 108 -69 149 -25 19 -44 21 -197 24 l-169 3 0
-305z m305 222 c47 -21 68 -88 44 -141 -20 -44 -58 -57 -168 -57 l-101 0 0
105 0 105 100 0 c55 0 111 -5 125 -12z"/>
<path d="M19722 8398 c3 -40 5 -43 33 -43 28 0 30 3 33 43 l3 42 -36 0 -36 0
3 -42z"/>
<path d="M13950 8330 l0 -60 -30 0 c-27 0 -30 -3 -30 -30 0 -27 3 -30 30 -30
l30 0 0 -178 c0 -212 1 -216 81 -217 51 0 54 1 57 27 3 24 -1 27 -30 30 l-33
3 -3 168 -2 167 35 0 c32 0 35 2 35 30 0 28 -3 30 -35 30 l-35 0 0 60 0 60
-35 0 -35 0 0 -60z"/>
<path d="M14699 8251 c-62 -39 -89 -101 -89 -208 0 -94 24 -150 83 -197 35
-28 45 -31 112 -31 66 0 77 3 112 31 59 47 85 107 84 200 -1 151 -72 234 -201
234 -45 0 -65 -6 -101 -29z m156 -45 c51 -22 70 -65 70 -161 0 -61 -4 -88 -18
-108 -51 -78 -152 -79 -203 -2 -10 15 -19 55 -22 94 -6 88 20 154 70 176 42
18 61 18 103 1z"/>
<path d="M15250 8273 c-8 -3 -30 -19 -47 -36 l-33 -31 0 32 c0 30 -2 32 -35
32 l-35 0 0 -220 0 -220 35 0 35 0 0 126 c0 151 12 205 52 239 40 34 100 34
133 0 25 -24 25 -27 25 -195 l0 -170 35 0 35 0 0 179 c0 99 -4 191 -10 205
-15 39 -66 66 -125 65 -27 0 -57 -3 -65 -6z"/>
<path d="M16469 8241 l-39 -39 0 34 c0 32 -2 34 -35 34 l-35 0 0 -220 0 -220
35 0 35 0 0 123 c0 67 4 139 9 160 12 52 46 86 93 93 35 6 38 9 38 40 0 31 -2
34 -31 34 -23 0 -42 -10 -70 -39z"/>
<path d="M16725 8264 c-76 -39 -109 -106 -109 -219 0 -59 5 -81 29 -130 35
-70 70 -94 148 -102 140 -14 227 93 215 267 -10 130 -79 200 -199 200 -30 0
-67 -7 -84 -16z m166 -80 c64 -61 64 -211 -1 -276 -23 -23 -37 -28 -75 -28
-58 0 -89 20 -109 71 -22 55 -21 155 2 199 38 71 127 88 183 34z"/>
<path d="M17175 8257 c-61 -34 -98 -114 -98 -215 0 -95 27 -158 81 -195 72
-49 138 -47 199 6 l36 32 -5 -56 c-10 -93 -38 -119 -129 -119 -40 0 -55 5 -74
25 -14 13 -25 29 -25 35 0 5 -16 10 -36 10 -34 0 -36 -1 -29 -27 16 -64 81
-103 172 -103 82 1 136 27 165 82 22 41 23 54 26 291 l3 247 -30 0 c-26 0 -31
-4 -31 -25 0 -29 -12 -32 -31 -9 -39 48 -129 58 -194 21z m146 -53 c81 -41 94
-232 21 -299 -29 -27 -96 -34 -134 -14 -55 29 -77 182 -38 259 33 64 91 85
151 54z"/>
<path d="M17678 8240 l-38 -41 0 36 c0 32 -2 35 -29 35 -37 0 -37 2 -33 -247
l3 -193 34 0 35 0 0 145 c0 113 4 153 16 176 15 31 66 59 104 59 16 0 20 6 20
35 0 34 -1 35 -37 35 -29 0 -43 -8 -75 -40z"/>
<path d="M17923 8259 c-30 -15 -45 -31 -57 -60 -22 -54 -21 -59 18 -59 28 0
36 5 46 30 15 36 69 56 124 46 47 -9 66 -30 66 -71 0 -40 -14 -50 -85 -60
-136 -18 -187 -49 -201 -120 -14 -78 35 -140 120 -151 49 -7 124 14 146 42 16
18 30 18 30 -1 0 -23 45 -47 82 -43 43 4 53 43 15 57 -13 5 -27 17 -31 26 -3
9 -6 83 -6 164 0 164 -6 182 -66 207 -51 21 -151 18 -201 -7z m197 -273 c0
-48 -4 -57 -29 -79 -51 -43 -150 -47 -171 -7 -16 30 -12 75 9 94 10 9 49 23
87 30 109 22 104 24 104 -38z"/>
<path d="M18455 8269 c-11 -6 -30 -21 -42 -32 l-23 -20 0 26 c0 24 -4 27 -35
27 l-35 0 0 -220 0 -220 38 0 37 0 -3 122 c-2 68 0 143 3 167 13 86 97 130
156 82 23 -19 24 -24 27 -195 l3 -176 34 0 34 0 3 166 3 166 33 29 c41 37 89
39 120 6 21 -22 22 -32 22 -195 l0 -172 35 0 35 0 0 184 c0 102 -4 196 -10
210 -26 69 -176 76 -230 11 -12 -14 -16 -13 -42 11 -22 22 -39 28 -85 31 -33
2 -67 -2 -78 -8z"/>
<path d="M19155 8268 c-11 -6 -30 -20 -42 -31 l-23 -20 0 26 c0 24 -4 27 -35
27 l-35 0 0 -220 0 -220 35 0 35 0 0 145 c0 100 4 156 14 178 26 63 100 86
147 48 23 -19 24 -24 27 -195 l3 -176 35 0 34 0 0 161 0 161 34 34 c42 42 91
46 124 11 21 -22 22 -32 22 -195 l0 -172 35 0 35 0 0 185 c0 203 -6 231 -55
253 -33 15 -109 16 -138 1 -12 -6 -32 -20 -43 -31 -21 -19 -22 -19 -52 11 -26
27 -37 31 -84 31 -29 0 -62 -6 -73 -12z"/>
<path d="M20045 8268 c-11 -6 -30 -22 -42 -35 -29 -30 -33 -29 -33 7 0 27 -3
30 -30 30 l-30 0 0 -220 0 -220 35 0 35 0 0 140 c0 155 9 192 55 228 16 13 42
22 61 22 84 0 94 -25 94 -230 l0 -160 35 0 35 0 0 181 c0 198 -5 220 -60 253
-32 19 -125 21 -155 4z"/>
<path d="M20443 8260 c-95 -57 -132 -235 -73 -349 51 -101 175 -131 251 -60
17 16 34 27 37 25 3 -3 0 -32 -7 -63 -15 -78 -43 -103 -115 -103 -56 0 -106
26 -106 56 0 9 -11 14 -35 14 -25 0 -35 -4 -35 -15 0 -33 32 -76 72 -96 55
-28 173 -24 214 7 73 54 84 105 84 392 l0 202 -35 0 c-31 0 -35 -3 -35 -27 l0
-26 -22 20 c-37 33 -64 43 -115 43 -30 0 -60 -7 -80 -20z m159 -67 c37 -33 51
-75 52 -148 0 -110 -39 -165 -119 -165 -67 0 -105 40 -119 126 -12 85 20 172
75 202 30 16 85 9 111 -15z"/>
<path d="M13547 8047 l75 -224 -24 -49 c-21 -45 -26 -49 -61 -52 -36 -3 -38
-5 -35 -35 3 -30 6 -32 44 -35 47 -3 94 28 112 75 39 101 192 527 192 534 0 5
-15 9 -34 9 l-34 0 -45 -122 c-25 -68 -51 -142 -58 -165 -6 -24 -15 -43 -18
-43 -4 0 -31 74 -60 165 l-53 165 -39 0 -38 0 76 -223z"/>
<path d="M19720 8050 l0 -220 35 0 35 0 0 220 0 220 -35 0 -35 0 0 -220z"/>
<path d="M630 3700 l0 -3050 3245 0 3245 0 0 70 0 70 -3170 0 -3170 0 0 2980
0 2980 -75 0 -75 0 0 -3050z"/>
<path d="M33644 6073 c-4 -10 -6 -21 -6 -25 1 -5 -3 -7 -8 -5 -6 1 -177 -164
-381 -368 l-370 -370 6 -950 c3 -522 6 -1179 6 -1460 0 -280 4 -535 8 -565 6
-35 7 17 4 147 -5 150 -3 203 5 203 8 0 13 -38 14 -122 3 -160 7 -74 17 350 8
314 8 299 6 -223 -2 -500 -2 -522 5 -205 4 195 9 357 11 360 1 3 5 -49 9 -115
l5 -120 305 0 305 0 6 40 c3 22 8 -52 10 -165 3 -165 5 -127 9 200 5 362 6
319 10 -400 l5 -805 5 565 c4 425 6 504 10 320 3 -165 6 -217 10 -160 3 47 7
-295 10 -760 3 -465 6 391 8 1903 1 1590 -2 2747 -7 2747 -5 0 -12 -8 -17 -17z
m13 -2875 c-1 -68 -3 -13 -3 122 0 135 2 190 3 123 2 -68 2 -178 0 -245z
m-740 -80 c-2 -24 -4 -5 -4 42 0 47 2 66 4 43 2 -24 2 -62 0 -85z m0 -280 c-1
-46 -3 -11 -3 77 0 88 2 125 3 83 2 -42 2 -114 0 -160z m740 -371 c-2 -23 -3
-1 -3 48 0 50 1 68 3 42 2 -26 2 -67 0 -90z"/>
<path d="M15610 5275 l0 -175 25 0 c24 0 25 2 25 75 l0 75 65 0 c82 0 119 18
135 65 9 27 9 44 0 71 -16 49 -56 64 -165 64 l-85 0 0 -175z m190 115 c11 -11
20 -29 20 -40 0 -39 -35 -60 -100 -60 l-60 0 0 60 0 60 60 0 c47 0 64 -4 80
-20z"/>
<path d="M16590 5425 c0 -18 5 -25 20 -25 15 0 20 7 20 25 0 18 -5 25 -20 25
-15 0 -20 -7 -20 -25z"/>
<path d="M16860 5383 c0 -63 -1 -65 -18 -50 -21 19 -83 22 -113 7 -30 -17 -49
-64 -49 -124 0 -44 5 -60 26 -85 32 -38 80 -49 122 -27 36 18 46 20 37 6 -3
-5 3 -10 14 -10 20 0 21 5 21 175 0 168 -1 175 -20 175 -18 0 -20 -7 -20 -67z
m-30 -81 c34 -27 39 -108 10 -144 -47 -60 -120 -18 -120 69 0 75 60 116 110
75z"/>
<path d="M17390 5390 c0 -55 -10 -75 -25 -50 -8 13 -81 13 -106 0 -51 -28 -66
-141 -26 -201 31 -46 86 -61 130 -35 20 11 33 14 35 7 2 -6 10 -11 18 -11 12
0 14 31 14 175 0 168 -1 175 -20 175 -18 0 -20 -7 -20 -60z m-25 -95 c37 -36
32 -130 -9 -157 -25 -17 -65 -8 -86 20 -18 22 -21 36 -17 76 7 80 63 111 112
61z"/>
<path d="M17620 5275 c0 -168 1 -175 20 -175 11 0 20 5 20 11 0 5 10 3 22 -5
55 -39 138 0 158 74 14 53 -1 119 -35 148 -31 26 -90 30 -123 6 l-22 -15 0 65
c0 59 -2 66 -20 66 -19 0 -20 -7 -20 -175z m155 20 c33 -32 35 -110 5 -143
-26 -27 -71 -29 -94 -3 -39 43 -29 137 17 159 34 16 46 14 72 -13z"/>
<path d="M15920 5225 c0 -116 1 -125 19 -125 17 0 19 9 22 84 4 89 22 126 61
126 11 0 18 7 18 20 0 27 -28 26 -57 -2 l-23 -21 0 21 c0 15 -6 22 -20 22 -19
0 -20 -7 -20 -125z"/>
<path d="M16108 5330 c-32 -24 -46 -81 -37 -143 13 -81 67 -120 140 -98 69 21
99 110 68 200 -20 58 -119 82 -171 41z m113 -29 c21 -16 24 -28 24 -81 0 -53
-3 -65 -24 -81 -55 -45 -111 -3 -111 83 0 81 58 122 111 79z"/>
<path d="M16330 5323 c10 -34 65 -192 74 -214 4 -9 16 -16 28 -15 16 1 29 24
68 129 47 126 47 127 25 127 -21 0 -27 -11 -56 -100 -18 -55 -36 -96 -40 -92
-3 4 -19 49 -34 100 -25 81 -31 92 -51 92 -20 0 -22 -3 -14 -27z"/>
<path d="M16590 5225 c0 -118 1 -125 20 -125 19 0 20 7 20 125 0 118 -1 125
-20 125 -19 0 -20 -7 -20 -125z"/>
<path d="M17001 5334 c-48 -34 -65 -126 -35 -190 26 -55 90 -76 147 -49 28 13
57 49 57 70 0 15 -36 1 -56 -20 -40 -44 -105 -23 -120 38 l-6 27 97 0 c84 0
96 2 91 16 -3 9 -6 27 -6 41 0 14 -13 37 -29 54 -24 23 -38 29 -73 29 -24 0
-54 -7 -67 -16z m103 -35 c14 -11 26 -29 26 -40 0 -17 -8 -19 -70 -19 -38 0
-70 2 -70 5 0 4 7 19 15 35 23 45 58 52 99 19z"/>
<path d="M17880 5337 c0 -7 17 -64 38 -127 36 -106 38 -118 25 -147 -8 -22
-20 -33 -33 -33 -13 0 -20 -7 -20 -20 0 -23 36 -28 63 -7 13 9 137 322 137
345 0 2 -10 2 -22 0 -18 -2 -28 -19 -52 -90 -17 -49 -33 -88 -36 -88 -3 0 -19
41 -35 90 -22 70 -33 90 -47 90 -10 0 -18 -6 -18 -13z"/>
<path d="M13010 4579 c-59 -27 -77 -44 -108 -104 -52 -103 -39 -255 29 -338
80 -98 234 -109 327 -24 20 18 24 19 32 7 5 -8 10 -23 10 -32 0 -21 40 -25 41
-5 1 13 0 206 -1 245 0 21 -3 22 -105 22 l-105 0 0 -30 0 -30 81 0 81 0 -7
-37 c-10 -59 -37 -96 -85 -120 -49 -26 -77 -28 -135 -12 -122 34 -173 219 -94
344 64 101 224 106 281 9 17 -28 26 -34 54 -34 l34 0 -15 37 c-35 83 -102 123
-205 123 -44 0 -79 -7 -110 -21z"/>
<path d="M14890 4330 l0 -260 165 0 165 0 0 30 0 30 -130 0 -130 0 0 230 0
230 -35 0 -35 0 0 -260z"/>
<path d="M16723 4558 c2 -28 6 -33 30 -36 25 -3 27 -1 27 32 0 33 -2 36 -29
36 -27 0 -29 -3 -28 -32z"/>
<path d="M18018 4543 c-9 -27 -39 -113 -68 -193 -28 -80 -62 -176 -75 -213
l-24 -68 36 3 c35 3 36 5 62 78 l26 75 101 3 102 3 27 -81 28 -80 37 0 37 0
-91 260 -91 260 -46 0 c-45 0 -45 0 -61 -47z m102 -138 c18 -55 35 -106 38
-112 3 -10 -16 -13 -77 -13 -65 0 -81 3 -81 15 0 8 16 56 35 107 19 51 35 100
35 108 0 30 19 -8 50 -105z"/>
<path d="M19377 4578 c-2 -7 -2 -41 1 -75 2 -34 2 -69 -2 -78 -5 -14 -9 -13
-34 5 -71 53 -176 24 -220 -60 -20 -38 -23 -56 -20 -120 6 -132 56 -190 161
-190 49 0 60 4 87 30 l30 29 0 -24 c0 -20 5 -25 25 -25 l25 0 0 260 0 260 -24
0 c-13 0 -26 -6 -29 -12z m-45 -203 c33 -33 46 -86 37 -155 -12 -89 -78 -132
-149 -97 -75 37 -81 210 -9 261 36 25 92 21 121 -9z"/>
<path d="M14500 4500 c0 -47 -2 -50 -25 -50 -20 0 -25 -5 -25 -25 0 -20 5 -25
25 -25 l25 0 0 -159 c0 -171 1 -175 55 -185 44 -8 65 2 65 30 0 20 -5 24 -29
24 l-30 0 -3 129 c-4 161 -4 161 33 161 26 0 30 3 27 23 -2 16 -11 23 -30 25
-26 3 -28 6 -28 53 0 48 -1 49 -30 49 -29 0 -30 -1 -30 -50z"/>
<path d="M13575 4451 c-11 -5 -31 -21 -45 -36 l-25 -27 -5 29 c-4 19 -12 29
-28 31 l-22 3 0 -190 0 -191 29 0 29 0 1 126 c1 69 7 136 13 148 11 25 36 41
81 51 24 5 28 10 25 33 -3 29 -21 36 -53 23z"/>
<path d="M13789 4450 c-79 -23 -123 -95 -122 -197 1 -124 64 -198 168 -196 63
1 110 24 135 66 27 44 25 57 -10 57 -16 0 -30 -5 -30 -10 0 -6 -12 -22 -26
-35 -63 -59 -174 -8 -174 79 l0 26 136 0 136 0 -4 58 c-5 71 -34 117 -92 143
-43 20 -75 22 -117 9z m102 -60 c21 -12 49 -60 49 -85 0 -13 -17 -15 -106 -15
l-106 0 7 28 c11 47 53 82 98 82 21 0 47 -5 58 -10z"/>
<path d="M14179 4451 c-48 -15 -71 -33 -85 -66 -19 -45 -19 -45 16 -45 17 0
30 4 30 8 0 5 9 18 20 30 16 17 32 22 68 22 56 0 81 -15 87 -52 7 -38 -15 -54
-82 -62 -122 -15 -163 -45 -163 -121 0 -78 61 -121 150 -105 23 4 55 17 71 29
23 17 29 18 29 7 0 -23 41 -45 73 -39 34 7 36 36 2 51 -25 12 -25 12 -25 152
0 138 0 140 -26 163 -38 33 -108 45 -165 28z m137 -243 c-3 -24 -5 -46 -5 -51
-2 -17 -69 -47 -108 -47 -49 0 -73 20 -73 60 0 37 28 57 100 69 96 15 93 17
86 -31z"/>
<path d="M15386 4450 c-37 -12 -85 -56 -102 -97 -18 -42 -18 -154 0 -196 29
-69 75 -100 151 -100 57 0 104 20 134 59 31 40 28 64 -9 64 -16 0 -30 -5 -30
-10 0 -6 -11 -22 -25 -35 -38 -39 -97 -35 -141 9 -24 24 -34 43 -34 65 l0 30
137 3 138 3 -3 40 c-7 88 -42 141 -111 164 -39 13 -64 13 -105 1z m105 -60
c21 -12 49 -60 49 -85 0 -13 -17 -15 -106 -15 l-106 0 6 28 c10 42 60 82 102
82 19 0 44 -5 55 -10z"/>
<path d="M15779 4451 c-49 -16 -71 -33 -85 -66 -18 -45 -18 -45 14 -45 20 0
35 9 50 30 20 27 28 30 76 30 58 0 86 -19 86 -58 0 -24 -25 -52 -47 -52 -9 0
-46 -5 -82 -11 -87 -15 -121 -47 -121 -113 0 -32 6 -52 23 -71 41 -48 137 -51
198 -6 27 20 27 20 32 1 6 -23 41 -38 74 -32 29 5 31 38 3 47 -19 6 -20 15
-20 129 0 135 -9 177 -45 200 -29 19 -120 29 -156 17z m141 -242 c0 -33 -6
-47 -31 -70 -25 -24 -40 -29 -79 -29 -59 0 -82 19 -78 64 3 35 29 51 100 65
84 17 88 16 88 -30z"/>
<path d="M16220 4453 c-8 -3 -30 -19 -47 -36 l-33 -31 0 32 c0 27 -4 32 -25
32 l-25 0 0 -190 0 -190 30 0 30 0 0 129 c0 125 1 131 26 160 14 17 34 31 44
31 36 0 50 12 50 41 0 29 -13 35 -50 22z"/>
<path d="M16460 4449 c-14 -5 -37 -22 -52 -36 l-28 -27 0 33 c0 28 -3 32 -22
29 -23 -3 -23 -5 -26 -190 l-2 -188 29 0 29 0 4 139 c3 131 4 141 27 165 13
14 36 28 52 31 31 7 83 -15 93 -40 3 -9 6 -79 6 -156 l0 -139 30 0 30 0 0 145
c0 197 -13 227 -106 240 -22 2 -50 0 -64 -6z"/>
<path d="M17020 4449 c-14 -5 -37 -22 -52 -36 l-28 -27 0 33 c0 28 -3 32 -22
29 -23 -3 -23 -5 -26 -190 l-2 -188 29 0 29 0 4 139 c3 131 4 141 27 165 13
14 36 28 52 31 31 7 83 -15 93 -40 3 -9 6 -79 6 -156 l0 -139 30 0 30 0 0 145
c0 197 -13 227 -106 240 -22 2 -50 0 -64 -6z"/>
<path d="M17365 4446 c-95 -43 -134 -181 -84 -297 40 -93 150 -123 218 -60
l31 29 0 -34 c0 -58 -24 -100 -63 -113 -53 -18 -106 -5 -126 30 -12 22 -23 28
-43 27 -32 -3 -34 -8 -13 -48 21 -40 69 -63 135 -64 102 -1 154 48 165 157 3
34 5 132 3 217 l-3 155 -25 0 c-19 0 -26 -6 -28 -24 l-4 -23 -26 25 c-33 32
-95 42 -137 23z m123 -69 c59 -63 54 -207 -9 -251 -51 -35 -119 -12 -145 50
-27 65 -15 155 28 202 30 31 96 31 126 -1z"/>
<path d="M18456 4450 c-119 -37 -157 -244 -63 -346 72 -78 206 -62 248 29 25
57 24 67 -10 67 -25 0 -31 -6 -41 -34 -17 -52 -90 -74 -138 -40 -63 44 -69
188 -10 251 16 17 32 23 64 23 45 0 69 -16 85 -57 11 -31 59 -33 59 -3 0 34
-28 79 -59 95 -38 19 -99 26 -135 15z"/>
<path d="M18805 4446 c-47 -18 -75 -48 -75 -82 0 -20 5 -24 30 -24 18 0 30 5
30 13 0 27 36 47 81 47 57 0 89 -22 89 -61 0 -36 -15 -43 -118 -60 -96 -15
-123 -37 -130 -107 -4 -47 -2 -54 26 -82 41 -41 120 -44 181 -8 l35 20 15 -21
c15 -20 36 -26 74 -23 24 3 22 39 -3 47 -19 6 -20 15 -20 129 0 135 -9 177
-45 200 -35 23 -122 29 -170 12z m155 -237 c0 -31 -6 -47 -29 -70 -25 -24 -38
-29 -80 -29 -54 0 -81 17 -81 51 0 46 23 61 125 83 58 12 65 8 65 -35z"/>
<path d="M19625 4448 c-93 -32 -139 -156 -105 -280 13 -45 78 -103 125 -112
72 -14 162 33 184 94 9 28 8 30 -15 30 -16 0 -38 -13 -58 -35 -27 -28 -41 -35
-72 -35 -22 0 -50 7 -62 16 -26 18 -52 65 -52 94 0 19 6 20 141 20 l141 0 -7
53 c-12 85 -47 133 -114 156 -41 13 -66 13 -106 -1z m126 -77 c17 -17 29 -40
29 -55 l0 -26 -106 0 -106 0 6 28 c19 78 121 109 177 53z"/>
<path d="M20060 4453 c-8 -3 -27 -14 -42 -24 -33 -24 -38 -24 -38 2 0 15 -5
20 -22 17 -23 -3 -23 -5 -26 -190 l-2 -188 30 0 30 0 0 130 c0 142 8 173 51
196 39 20 56 18 84 -11 24 -23 25 -28 25 -170 l0 -145 30 0 30 0 0 129 c0 147
7 174 49 196 41 21 58 19 86 -10 24 -23 25 -28 25 -170 l0 -145 31 0 30 0 -3
164 c-3 157 -4 166 -27 190 -42 45 -116 42 -183 -6 -14 -10 -21 -8 -42 11 -24
23 -87 36 -116 24z"/>
<path d="M16728 4260 l-3 -190 28 0 27 0 0 190 0 190 -25 0 -24 0 -3 -190z"/>
<path d="M20500 4438 c0 -7 27 -94 61 -192 54 -163 59 -182 48 -210 -18 -45
-39 -66 -66 -66 -18 0 -23 -5 -23 -24 0 -33 29 -41 75 -22 26 11 41 26 54 58
22 50 158 426 163 448 2 11 -5 15 -26 15 -27 0 -30 -4 -79 -142 -29 -78 -53
-140 -56 -138 -2 2 -24 66 -50 142 -43 130 -48 138 -73 141 -18 2 -28 -1 -28
-10z"/>
<path d="M15216 3578 c-26 -39 -48 -145 -41 -191 8 -44 53 -143 61 -134 3 3
-2 22 -11 43 -27 65 -30 159 -6 234 22 70 21 85 -3 48z"/>
<path d="M15340 3578 c-48 -33 -61 -63 -57 -131 3 -46 9 -63 32 -87 50 -52
141 -49 184 6 44 55 32 167 -21 207 -41 31 -97 33 -138 5z m104 -19 c27 -13
56 -64 56 -99 0 -89 -94 -140 -157 -86 -25 22 -28 31 -28 86 0 55 3 64 28 86
31 26 62 30 101 13z"/>
<path d="M15870 3466 c0 -114 2 -136 15 -136 12 0 15 18 15 105 0 58 3 105 8
105 4 0 34 -47 67 -103 43 -72 67 -103 82 -105 21 -3 21 0 22 132 1 116 -1
136 -14 136 -12 0 -15 -18 -15 -105 0 -58 -3 -105 -7 -105 -5 0 -36 46 -69
103 -43 71 -68 103 -83 105 -20 3 -21 0 -21 -132z"/>
<path d="M17010 3583 c-5 -149 -3 -243 4 -250 5 -4 11 -2 13 4 4 10 10 9 26
-2 32 -22 55 -18 88 14 58 59 28 171 -46 171 -19 0 -37 -4 -40 -10 -14 -23
-25 -7 -25 40 0 28 -4 50 -10 50 -5 0 -10 -8 -10 -17z m110 -103 c45 -45 13
-140 -44 -126 -48 12 -55 127 -8 139 29 8 32 7 52 -13z"/>
<path d="M18443 3553 c17 -37 22 -67 22 -128 0 -61 -5 -91 -22 -127 -12 -27
-17 -48 -12 -48 6 0 22 26 36 57 35 76 35 160 -1 238 -14 30 -29 55 -35 55 -5
0 0 -21 12 -47z"/>
<path d="M17658 3570 c-29 -22 -43 -70 -21 -70 7 0 18 11 23 25 5 14 17 28 25
31 25 10 63 -5 70 -26 9 -29 -9 -54 -66 -90 -47 -31 -69 -61 -69 -96 0 -11 18
-14 85 -14 69 0 85 3 85 15 0 12 -14 15 -70 15 -38 0 -70 4 -70 8 0 13 41 48
78 66 67 34 77 123 17 146 -39 15 -59 12 -87 -10z"/>
<path d="M17855 3566 c-45 -45 -45 -177 1 -223 67 -67 145 22 128 149 -12 88
-77 126 -129 74z m86 -28 c16 -29 16 -137 0 -166 -17 -31 -61 -27 -79 8 -16
30 -10 143 8 165 18 22 57 19 71 -7z"/>
<path d="M18058 3570 c-29 -22 -43 -70 -21 -70 7 0 18 11 23 25 5 14 17 28 25
31 25 10 63 -5 70 -26 9 -29 -9 -54 -66 -90 -47 -31 -69 -61 -69 -96 0 -11 18
-14 83 -14 68 0 84 3 84 15 0 12 -15 15 -69 15 -37 0 -68 4 -68 8 0 13 41 48
78 66 67 34 77 123 17 146 -39 15 -59 12 -87 -10z"/>
<path d="M18300 3570 c-6 -11 -22 -23 -35 -26 -35 -9 -31 -24 5 -24 l30 0 0
-95 c0 -78 3 -95 15 -95 13 0 15 21 15 130 0 127 -7 153 -30 110z"/>
<path d="M15570 3425 c0 -78 3 -95 15 -95 12 0 15 14 15 69 0 73 14 101 49
101 32 0 41 -22 41 -97 0 -58 3 -73 15 -73 22 0 21 137 -1 169 -17 24 -52 26
-98 6 -14 -6 -17 -5 -12 3 4 7 1 12 -8 12 -13 0 -16 -16 -16 -95z"/>
<path d="M16141 3494 c-28 -35 -29 -112 -2 -145 14 -18 29 -24 61 -24 57 0 80
29 80 99 0 42 -5 57 -23 74 -34 32 -89 30 -116 -4z m91 -11 c24 -28 28 -63 13
-100 -11 -27 -19 -33 -44 -33 -36 0 -51 22 -51 76 0 62 48 96 82 57z"/>
<path d="M16313 3508 c3 -7 18 -50 33 -95 30 -90 53 -107 72 -55 5 15 21 57
35 95 23 60 24 67 9 67 -12 0 -24 -21 -41 -75 -13 -41 -28 -72 -32 -69 -4 2
-11 19 -14 37 -13 57 -37 107 -52 107 -8 0 -12 -6 -10 -12z"/>
<path d="M16532 3500 c-61 -57 -24 -180 53 -180 23 0 75 35 75 51 0 15 -27 10
-34 -6 -13 -34 -96 -8 -96 31 0 11 16 14 70 14 76 0 79 2 59 59 -19 53 -85 69
-127 31z m89 -21 c11 -11 18 -26 16 -32 -4 -14 -86 -22 -99 -9 -13 13 2 42 26
52 31 13 34 12 57 -11z"/>
<path d="M16710 3425 c0 -78 3 -95 15 -95 12 0 15 14 15 69 0 70 14 101 44
101 26 0 36 -26 36 -97 0 -58 3 -73 15 -73 12 0 15 14 15 69 0 70 14 101 44
101 27 0 36 -26 36 -102 0 -65 2 -76 15 -72 11 5 15 24 15 81 0 41 -5 83 -10
94 -12 22 -59 26 -91 7 -17 -10 -23 -10 -26 0 -6 15 -65 16 -81 0 -9 -9 -12
-9 -12 0 0 7 -7 12 -15 12 -12 0 -15 -17 -15 -95z"/>
<path d="M17233 3500 c-61 -56 -25 -180 52 -180 23 0 75 35 75 51 0 15 -27 10
-34 -6 -8 -23 -73 -20 -86 4 -19 36 -12 41 60 41 64 0 70 2 70 20 0 29 -26 76
-45 84 -31 12 -71 6 -92 -14z m88 -21 c30 -30 19 -44 -36 -44 -28 0 -50 5 -52
12 -5 15 32 53 52 53 8 0 24 -9 36 -21z"/>
<path d="M17410 3425 c0 -78 3 -95 15 -95 12 0 15 13 15 61 0 69 12 99 40 99
11 0 20 7 20 15 0 20 -19 19 -42 -2 -17 -15 -18 -15 -18 0 0 10 -7 17 -15 17
-12 0 -15 -17 -15 -95z"/>
<path d="M32893 2080 c0 -25 2 -35 4 -22 2 12 2 32 0 45 -2 12 -4 2 -4 -23z"/>
<path d="M32924 2000 c0 -69 1 -97 3 -62 2 34 2 90 0 125 -2 34 -3 6 -3 -63z"/>
<path d="M32904 1760 c0 -69 1 -97 3 -62 2 34 2 90 0 125 -2 34 -3 6 -3 -63z"/>
<path d="M33623 1240 c0 -47 2 -66 4 -42 2 23 2 61 0 85 -2 23 -4 4 -4 -43z"/>
<path d="M27858 813 c-9 -5 -27 -21 -40 -38 -12 -16 -30 -39 -40 -50 -9 -11
-44 -54 -78 -95 -34 -41 -78 -95 -98 -119 -21 -24 -43 -54 -51 -65 -8 -12 -18
-23 -22 -26 -3 -3 -33 -39 -67 -80 -56 -70 -136 -169 -175 -215 -9 -11 -30
-38 -47 -60 l-32 -40 1273 -3 c700 -1 1275 0 1277 3 3 3 3 7 1 9 -4 5 -249 14
-406 15 l-83 1 0 229 c0 171 3 231 13 238 6 5 42 9 80 8 l67 -1 0 73 c0 70 1
73 26 79 15 4 62 4 106 1 84 -7 198 1 198 13 0 4 -142 9 -316 12 -180 4 -320
10 -325 15 -12 12 206 24 450 24 96 0 180 4 186 9 6 5 65 11 131 13 65 1 -45
5 -246 7 -338 4 -347 5 -122 7 139 2 242 7 242 13 0 5 19 11 43 13 23 2 -142
4 -368 5 -225 1 -669 4 -985 7 -316 3 -583 2 -592 -2z"/>
<path d="M33663 160 c0 -25 2 -35 4 -22 2 12 2 32 0 45 -2 12 -4 2 -4 -23z"/>
</g>
</svg>
