<?xml version="1.0" standalone="no"?>
<!DOCTYPE svg PUBLIC "-//W3C//DTD SVG 20010904//EN"
 "http://www.w3.org/TR/2001/REC-SVG-20010904/DTD/svg10.dtd">
<svg version="1.0" xmlns="http://www.w3.org/2000/svg"
 width="3368.000000pt" height="2324.000000pt" viewBox="0 0 3368.000000 2324.000000"
 preserveAspectRatio="xMidYMid meet">

<g transform="translate(0.000000,2324.000000) scale(0.100000,-0.100000)"
fill="#000000" stroke="none">
<path d="M4480 23160 c0 -46 -4 -81 -10 -81 -5 -1 -37 -3 -70 -4 -33 -1 -64
-3 -70 -4 -6 -1 -10 -87 -10 -235 l0 -235 35 3 c19 2 37 1 40 -3 2 -4 -48 -7
-111 -6 l-114 1 0 -73 0 -73 -52 -1 c-29 -1 -195 -5 -368 -8 -205 -5 106 -8
888 -9 839 -1 1202 1 1202 9 0 5 27 42 60 81 33 39 57 75 53 81 -3 6 -1 7 5 3
6 -3 14 0 19 7 7 13 54 72 97 120 10 12 30 38 45 57 14 19 32 40 40 46 8 7 11
16 6 24 -5 8 -4 11 2 7 11 -7 34 18 130 138 30 39 70 88 87 109 17 22 46 56
64 76 17 21 32 40 32 44 0 3 -450 6 -1000 6 l-1000 0 0 -80z"/>
<path d="M26530 22535 l0 -75 3175 0 3175 0 0 -2975 0 -2975 70 0 70 0 0 3050
0 3050 -3245 0 -3245 0 0 -75z"/>
<path d="M3238 22433 c23 -2 61 -2 85 0 23 2 4 4 -43 4 -47 0 -66 -2 -42 -4z"/>
<path d="M773 21435 c0 -22 2 -30 4 -17 2 12 2 30 0 40 -3 9 -5 -1 -4 -23z"/>
<path d="M790 20923 c0 -72 -2 -81 -20 -86 -18 -5 -20 -14 -20 -81 0 -72 -1
-76 -25 -82 -24 -6 -25 -10 -25 -79 0 -41 5 -77 10 -80 6 -3 10 -22 10 -41 0
-19 -4 -34 -10 -34 -5 0 -10 15 -10 34 0 19 -4 38 -10 41 -6 4 -10 -10 -10
-34 0 -34 -3 -41 -19 -41 -16 0 -20 8 -23 38 l-3 37 -70 0 c-38 0 -76 4 -82 8
-9 5 -13 33 -13 80 l0 72 -235 0 -235 0 0 -1762 c0 -970 2 -1763 3 -1763 2 0
183 180 403 400 l399 399 -4 1523 c-1 838 -5 1525 -7 1527 -2 2 -4 -32 -4 -76z"/>
<path d="M14615 19775 c-114 -21 -214 -63 -300 -124 -27 -19 -52 -38 -55 -41
-3 -3 -20 -16 -37 -29 -87 -60 -208 -260 -250 -412 -27 -96 -24 -298 6 -404
20 -74 92 -222 113 -236 5 -3 9 -10 7 -14 -3 -13 109 -133 170 -180 134 -102
314 -165 470 -165 l86 1 89 112 90 112 -175 6 c-151 6 -184 10 -249 33 -82 28
-193 98 -241 153 -237 270 -180 696 117 875 115 70 165 81 396 87 113 3 208 8
210 11 3 3 31 38 64 79 32 41 71 88 87 105 15 17 27 34 27 38 0 14 -548 8
-625 -7z"/>
<path d="M15903 19775 c-240 -52 -372 -312 -278 -547 23 -57 31 -69 71 -111
93 -97 231 -142 364 -119 80 14 194 67 226 105 23 27 24 35 24 156 0 115 -2
131 -21 155 -20 26 -22 26 -145 26 -111 0 -126 -2 -144 -20 -26 -26 -25 -60 0
-88 18 -19 32 -22 95 -22 l75 0 0 -47 c0 -94 -20 -116 -118 -129 -127 -16
-220 23 -272 116 -22 39 -25 57 -25 141 0 89 2 99 30 145 19 30 49 60 79 79
44 27 58 30 130 30 70 0 88 -4 132 -29 57 -31 81 -29 114 7 23 24 25 54 6 79
-20 27 -105 65 -170 77 -73 14 -95 13 -173 -4z"/>
<path d="M17970 19720 c-15 -15 -20 -33 -20 -75 0 -39 -4 -55 -13 -55 -22 0
-57 -39 -57 -64 0 -23 37 -66 57 -66 8 0 12 -58 15 -182 3 -158 6 -187 22
-210 31 -47 76 -68 146 -68 81 0 120 21 120 66 0 40 -30 61 -91 66 -41 3 -44
5 -51 39 -4 19 -6 90 -5 157 1 75 -2 123 -8 123 -5 1 21 5 59 9 55 5 73 12 88
30 24 30 23 46 -7 75 -20 21 -34 25 -79 25 -53 0 -54 0 -51 28 5 41 -13 100
-35 112 -30 16 -68 12 -90 -10z"/>
<path d="M16914 19580 c-28 -11 -64 -32 -81 -48 -36 -32 -95 -121 -88 -133 3
-4 1 -10 -5 -14 -14 -8 -11 -153 3 -190 40 -102 106 -164 202 -190 61 -16 175
-12 175 6 0 4 6 6 13 4 14 -5 85 42 101 68 15 24 -12 71 -43 75 -14 2 -42 -6
-63 -18 -80 -45 -193 -25 -232 40 -34 59 -34 59 179 62 216 3 215 3 215 69 0
97 -65 212 -144 255 -67 37 -161 42 -232 14z m189 -138 c18 -18 33 -40 34 -49
1 -10 3 -25 5 -33 2 -13 -18 -15 -129 -18 -129 -2 -133 -2 -133 18 0 12 7 34
15 51 40 75 146 91 208 31z"/>
<path d="M17545 19594 c-112 -16 -155 -39 -155 -85 0 -45 37 -64 100 -50 133
29 220 -5 220 -84 0 -33 -2 -35 -21 -25 -38 21 -151 24 -211 6 -100 -29 -148
-86 -148 -176 0 -113 78 -183 203 -182 62 0 157 32 157 52 0 18 21 10 44 -16
28 -34 73 -35 98 -4 16 20 18 44 18 207 0 160 -2 190 -19 226 -23 51 -64 91
-111 110 -39 17 -129 27 -175 21z m140 -333 c28 -6 30 -9 27 -51 -5 -75 -79
-122 -168 -106 -61 12 -90 63 -68 121 15 37 120 55 209 36z"/>
<path d="M16406 19565 l-26 -24 0 -251 0 -251 27 -25 c20 -19 34 -24 53 -19
49 12 57 33 62 183 4 100 11 148 22 171 17 32 71 72 116 86 58 18 79 81 40
123 -35 38 -88 26 -143 -29 -32 -34 -37 -35 -37 -10 0 28 -39 71 -64 71 -13 0
-35 -11 -50 -25z"/>
<path d="M14773 19103 c-28 -4 -47 -21 -123 -116 l-90 -112 228 -5 227 -5 2
-220 c1 -121 5 -219 9 -218 3 1 55 62 115 137 l109 135 0 199 0 199 -37 7
c-40 6 -386 6 -440 -1z"/>
<path d="M15615 18915 l-25 -24 0 -344 c0 -259 3 -347 13 -360 11 -16 35 -17
256 -15 l244 3 20 27 c24 32 17 71 -16 90 -14 9 -81 15 -192 18 l-170 5 -5
298 c-5 281 -6 299 -24 313 -30 22 -74 17 -101 -11z"/>
<path d="M18342 18914 c-50 -35 -14 -124 50 -124 34 0 78 40 78 70 0 30 -44
70 -77 70 -16 0 -39 -7 -51 -16z"/>
<path d="M16355 18761 c-95 -26 -173 -94 -205 -177 -25 -67 -26 -171 -4 -238
23 -66 104 -147 168 -169 136 -46 326 7 326 92 0 31 -27 61 -54 61 -9 0 -38
-11 -64 -25 -26 -14 -64 -25 -85 -25 -72 0 -138 45 -152 103 l-7 27 195 0
c228 0 230 1 220 78 -15 117 -74 212 -156 251 -48 23 -138 33 -182 22z m138
-150 c18 -17 38 -46 44 -65 l11 -36 -134 0 c-85 0 -134 4 -134 10 0 6 6 26 14
45 32 76 137 100 199 46z"/>
<path d="M19318 18756 c-112 -31 -187 -119 -195 -231 -3 -35 0 -85 6 -111 44
-175 248 -256 393 -157 27 19 52 33 54 30 8 -8 -13 -87 -31 -113 -36 -56 -142
-70 -260 -33 -60 18 -69 19 -89 5 -45 -29 -36 -89 17 -114 52 -25 170 -44 232
-37 137 14 219 65 254 161 19 50 21 77 21 308 0 240 -1 254 -20 271 -36 33
-120 11 -120 -32 0 -18 -15 -17 -31 3 -40 48 -152 73 -231 50z m153 -126 c76
-21 123 -104 100 -179 -33 -111 -186 -144 -268 -59 -25 26 -28 36 -28 98 0 62
3 71 30 100 43 45 99 59 166 40z"/>
<path d="M16866 18746 c-53 -15 -76 -36 -76 -73 0 -33 39 -66 70 -58 14 3 57
8 96 12 99 8 154 -23 154 -87 0 -19 -4 -21 -25 -16 -14 4 -62 7 -107 7 -167 1
-248 -60 -248 -186 0 -124 87 -193 229 -183 50 4 78 12 109 32 l43 27 20 -25
c27 -34 71 -35 105 -1 l26 26 -4 187 c-5 232 -16 262 -114 323 -32 20 -54 24
-134 26 -58 2 -114 -3 -144 -11z m246 -334 c18 -18 -9 -89 -44 -115 -57 -43
-177 -28 -193 23 -11 34 5 79 33 95 33 19 184 17 204 -3z"/>
<path d="M17341 18724 c-20 -25 -21 -39 -21 -269 0 -230 1 -244 21 -269 16
-20 29 -26 59 -26 60 0 70 22 70 155 0 125 17 199 52 233 13 11 48 32 79 46
31 13 59 32 63 41 13 34 6 72 -17 93 -37 34 -77 29 -131 -19 -32 -29 -46 -36
-46 -24 0 8 -7 27 -16 40 -24 36 -85 35 -113 -1z"/>
<path d="M17953 18735 c-18 -8 -43 -23 -55 -35 l-22 -20 -24 30 c-31 40 -81
42 -111 4 -20 -25 -21 -39 -21 -269 0 -240 0 -242 23 -263 31 -29 77 -29 105
1 21 22 22 33 22 181 0 123 3 165 16 191 16 35 65 65 106 65 33 0 87 -36 98
-66 6 -14 10 -98 10 -188 0 -157 1 -163 23 -184 30 -28 76 -28 106 -1 22 21
22 24 19 223 -3 183 -5 205 -25 241 -26 50 -58 79 -102 94 -46 15 -129 13
-168 -4z"/>
<path d="M18765 18736 c-16 -7 -41 -23 -54 -35 -23 -20 -25 -21 -35 -4 -31 57
-102 58 -131 2 -12 -22 -15 -75 -15 -249 0 -230 6 -269 45 -284 31 -12 65 -6
85 14 18 18 20 33 20 174 0 114 4 163 15 190 25 59 87 87 150 66 57 -19 65
-46 72 -243 3 -98 10 -178 16 -186 21 -25 56 -32 86 -16 16 8 31 22 35 30 3 9
6 103 6 208 0 166 -3 198 -19 232 -22 47 -64 89 -104 104 -39 15 -136 13 -172
-3z"/>
<path d="M18342 18717 c-21 -23 -22 -30 -22 -275 0 -248 0 -251 22 -266 35
-25 83 -20 107 10 20 25 21 39 21 256 0 181 -3 235 -15 257 -24 47 -78 56
-113 18z"/>
<path d="M5068 16384 c-181 -43 -311 -185 -370 -401 -29 -109 -29 -306 0 -415
35 -130 101 -235 192 -307 173 -137 494 -128 653 18 53 49 109 157 131 251 25
105 28 101 -60 98 l-76 -3 -19 -74 c-24 -96 -59 -153 -117 -196 -57 -41 -108
-55 -201 -55 -178 0 -313 119 -362 320 -19 77 -16 259 5 340 58 224 213 335
418 301 131 -22 197 -75 236 -191 l19 -55 64 -2 c91 -3 91 -3 73 59 -65 226
-208 330 -453 327 -42 0 -102 -7 -133 -15z"/>
<path d="M11366 16384 c-213 -51 -351 -234 -387 -511 -20 -157 15 -348 86
-468 41 -70 120 -150 182 -183 34 -18 96 -38 147 -48 78 -15 101 -16 185 -6
102 13 190 47 247 95 72 61 141 200 159 321 l7 47 -77 -3 -77 -3 -19 -74 c-47
-183 -149 -259 -337 -249 -101 5 -163 31 -228 97 -47 46 -95 140 -115 221 -19
77 -16 260 5 339 59 222 213 336 411 303 136 -22 216 -85 245 -192 7 -25 17
-48 24 -53 11 -7 125 -8 138 0 11 6 -28 128 -58 183 -52 96 -155 167 -274 190
-73 14 -193 11 -264 -6z"/>
<path d="M16195 16394 c-130 -28 -209 -69 -296 -154 -113 -112 -169 -264 -169
-460 0 -365 226 -613 560 -614 170 -1 295 47 401 153 116 116 173 266 173 456
0 323 -163 553 -431 610 -63 14 -192 18 -238 9z m180 -135 c210 -39 338 -220
338 -479 0 -211 -84 -368 -238 -445 -57 -28 -66 -30 -180 -30 -115 0 -122 2
-180 32 -113 59 -188 161 -221 299 -24 103 -15 266 20 360 50 131 155 230 279
260 67 16 109 17 182 3z"/>
<path d="M18844 16385 c-183 -40 -316 -183 -376 -402 -29 -109 -29 -306 1
-416 43 -163 144 -294 272 -355 99 -47 227 -61 345 -38 199 39 305 145 358
357 25 103 28 99 -63 99 l-78 0 -6 -44 c-16 -116 -75 -209 -161 -254 -46 -24
-61 -27 -156 -27 -92 0 -112 3 -161 26 -102 48 -176 150 -210 289 -18 75 -16
260 4 337 59 224 221 341 422 304 130 -24 210 -91 237 -199 12 -49 24 -54 108
-48 30 2 56 4 57 5 6 4 -40 140 -63 181 -88 161 -300 235 -530 185z"/>
<path d="M20060 16394 c-64 -13 -154 -49 -207 -83 -104 -68 -172 -158 -221
-294 -24 -66 -26 -85 -26 -232 -1 -149 1 -165 27 -239 37 -105 70 -159 139
-228 156 -156 412 -199 635 -106 223 92 358 363 324 652 -14 116 -38 192 -88
278 -64 109 -171 193 -300 234 -48 15 -235 27 -283 18z m180 -134 c163 -31
280 -144 324 -311 68 -263 -27 -526 -224 -618 -49 -23 -67 -26 -170 -26 -108
0 -119 2 -180 31 -154 74 -239 233 -240 446 0 107 13 175 51 254 55 117 149
194 269 220 70 16 105 16 170 4z"/>
<path d="M27122 16380 c-184 -48 -314 -173 -380 -363 -37 -107 -43 -300 -13
-417 29 -118 75 -204 146 -275 163 -163 416 -207 644 -112 145 59 259 204 308
387 23 88 22 271 -2 365 -25 99 -87 214 -151 279 -129 133 -353 188 -552 136z
m233 -121 c213 -39 337 -217 339 -484 1 -181 -67 -328 -192 -412 -74 -50 -145
-67 -257 -61 -235 12 -384 200 -385 483 0 251 128 434 332 474 62 12 96 12
163 0z"/>
<path d="M5910 15790 l0 -590 425 0 425 0 0 65 0 65 -350 0 -350 0 0 205 0
205 324 0 c303 0 324 1 321 18 -2 9 -4 38 -4 65 l-1 47 -320 0 -320 0 0 190 0
190 335 0 335 0 0 65 0 65 -410 0 -410 0 0 -590z"/>
<path d="M7000 15791 l0 -591 75 0 75 0 0 256 0 255 233 -3 c211 -3 235 -5
265 -23 61 -36 75 -79 83 -260 4 -88 12 -175 19 -192 l12 -33 93 0 c99 0 109
6 73 47 -37 42 -46 80 -53 208 -10 201 -34 264 -117 306 l-40 21 51 34 c28 19
64 53 80 75 83 113 60 315 -46 409 -81 71 -96 74 -470 78 l-333 3 0 -590z
m599 448 c94 -21 141 -86 140 -194 -1 -78 -18 -123 -60 -157 -48 -39 -111 -48
-335 -48 l-194 0 0 205 0 205 203 0 c111 0 222 -5 246 -11z"/>
<path d="M8050 16315 l0 -65 195 0 195 0 0 -525 0 -525 75 0 75 0 0 525 0 525
193 2 192 3 1 63 2 62 -464 0 -464 0 0 -65z"/>
<path d="M9170 15790 l0 -590 75 0 75 0 0 590 0 590 -75 0 -75 0 0 -590z"/>
<path d="M9600 15790 l0 -590 75 0 75 0 0 270 0 270 285 0 285 0 -2 65 -2 65
-283 0 -283 0 0 190 0 190 320 0 320 0 0 65 0 65 -395 0 -395 0 0 -590z"/>
<path d="M10610 15790 l0 -590 75 0 75 0 0 590 0 590 -75 0 -75 0 0 -590z"/>
<path d="M12430 16148 c-45 -128 -124 -350 -175 -493 -51 -143 -109 -304 -128
-357 l-36 -98 82 0 82 0 17 53 c9 28 36 108 61 177 l44 125 199 3 c110 2 213
0 229 -3 29 -5 32 -11 90 -180 l60 -175 82 0 c46 0 83 2 83 4 0 4 -89 258
-286 819 -19 53 -50 143 -70 200 -61 177 -42 157 -154 157 l-97 0 -83 -232z
m269 -196 c45 -134 85 -250 88 -258 4 -12 -24 -14 -181 -14 -111 0 -186 4
-186 10 0 5 24 76 54 157 30 81 72 196 93 255 21 59 41 104 44 100 4 -4 43
-116 88 -250z"/>
<path d="M13180 16315 l0 -65 195 0 195 0 0 -525 0 -525 75 0 75 0 0 525 0
525 193 0 194 0 2 65 2 65 -465 0 -466 0 0 -65z"/>
<path d="M14280 15790 l0 -590 425 0 425 0 0 65 0 65 -350 0 -350 0 0 205 0
205 323 0 322 0 -2 37 c-1 21 -2 50 -2 66 l-1 27 -320 0 -320 0 0 190 0 190
335 0 335 0 0 65 0 65 -410 0 -410 0 0 -590z"/>
<path d="M17070 15790 l0 -590 75 0 75 0 0 270 0 270 284 0 284 0 -2 63 -1 62
-283 3 -282 2 0 190 0 190 320 0 320 0 0 65 0 65 -395 0 -395 0 0 -590z"/>
<path d="M20920 15790 l0 -590 70 0 70 0 2 487 3 486 47 -139 c25 -76 99 -295
164 -486 l118 -348 81 0 80 0 159 478 c87 262 162 481 167 486 4 5 7 -11 6
-35 -1 -24 0 -243 1 -486 l2 -443 70 0 70 0 0 590 0 591 -107 -3 -106 -3 -170
-510 c-143 -429 -172 -505 -180 -485 -12 33 -271 791 -309 908 l-30 92 -104 0
-104 0 0 -590z"/>
<path d="M22290 15790 l0 -590 75 0 75 0 0 249 0 250 233 3 c231 3 232 3 289
31 70 34 140 110 162 174 18 54 21 189 5 247 -17 62 -65 129 -116 163 -87 58
-125 63 -440 63 l-283 0 0 -590z m593 432 c119 -59 142 -232 43 -328 -58 -55
-114 -66 -321 -62 l-160 3 -3 208 -2 209 197 -4 c184 -3 201 -5 246 -26z"/>
<path d="M23355 16368 c-3 -7 -4 -272 -3 -588 l3 -575 368 -3 367 -2 0 65 0
65 -290 0 -290 0 0 525 0 525 -75 0 c-51 0 -77 -4 -80 -12z"/>
<path d="M24270 15790 l0 -590 425 0 425 0 0 65 0 65 -350 0 -350 0 0 205 0
205 320 0 c277 0 320 2 321 15 1 8 1 26 1 40 0 14 0 36 -1 50 l-1 25 -320 0
-320 0 0 190 0 190 335 0 335 0 0 65 0 65 -410 0 -410 0 0 -590z"/>
<path d="M25240 16315 l0 -65 195 0 195 0 0 -525 0 -525 75 0 75 0 0 525 0
525 193 2 192 3 0 60 0 60 -462 3 -463 2 0 -65z"/>
<path d="M26360 15790 l0 -590 75 0 75 0 0 590 0 590 -75 0 -75 0 0 -590z"/>
<path d="M28030 15790 l0 -590 70 0 70 0 2 477 3 477 132 -210 c73 -115 208
-328 302 -474 l169 -265 86 -3 86 -3 0 591 0 590 -70 0 -70 0 0 -482 0 -483
-48 75 c-27 41 -102 158 -167 260 -65 102 -141 221 -169 265 -29 44 -92 144
-142 222 l-89 142 -82 0 -83 1 0 -590z"/>
<path d="M14860 12933 l0 -263 35 0 35 0 0 109 0 109 108 3 c94 4 111 7 141
28 57 41 77 121 46 193 -26 63 -52 72 -218 78 l-147 5 0 -262z m235 197 c74
-17 99 -90 51 -147 -23 -26 -29 -28 -120 -31 l-96 -4 0 89 c0 49 3 93 7 96 9
10 111 8 158 -3z"/>
<path d="M17977 13193 c-4 -3 -7 -46 -7 -95 l0 -89 -31 23 c-23 17 -44 23 -84
23 -64 0 -99 -22 -134 -85 -52 -93 -21 -249 58 -294 51 -29 122 -25 166 8 33
26 35 26 35 7 0 -16 6 -21 25 -21 l25 0 0 265 0 265 -23 0 c-13 0 -27 -3 -30
-7z m-58 -209 c31 -22 51 -73 51 -129 0 -87 -42 -145 -105 -145 -64 0 -105 58
-105 150 0 84 42 140 105 140 17 0 41 -7 54 -16z"/>
<path d="M17140 13100 c0 -46 -2 -50 -23 -50 -13 0 -26 -3 -29 -6 -12 -12 5
-43 26 -46 20 -3 21 -9 26 -163 l5 -160 28 -13 c41 -20 87 -7 87 24 0 20 -5
24 -30 24 l-30 0 0 145 0 145 30 0 c25 0 30 4 30 25 0 21 -5 25 -30 25 -29 0
-30 1 -30 50 0 49 -1 50 -30 50 -29 0 -30 -1 -30 -50z"/>
<path d="M18340 13100 c0 -46 -2 -50 -23 -50 -13 0 -26 -3 -29 -6 -12 -12 5
-43 26 -46 20 -3 21 -9 26 -163 l5 -160 28 -13 c41 -20 87 -7 87 24 0 20 -5
24 -30 24 l-30 0 0 145 0 145 30 0 c25 0 30 4 30 25 0 21 -5 25 -30 25 -29 0
-30 1 -30 50 0 49 -1 50 -30 50 -29 0 -30 -1 -30 -50z"/>
<path d="M15437 13042 c-15 -10 -34 -27 -42 -38 -13 -18 -14 -17 -15 14 0 30
-2 33 -27 30 -16 -2 -27 -6 -25 -10 1 -5 2 -89 2 -188 l0 -180 31 0 30 0 -1
88 c-2 162 -2 169 25 201 17 19 37 31 58 33 28 3 32 7 32 33 0 37 -27 44 -68
17z"/>
<path d="M15635 13037 c-117 -65 -120 -294 -5 -361 43 -25 122 -26 168 -2 34
17 72 69 72 97 0 23 -58 13 -65 -12 -8 -25 -55 -49 -96 -49 -43 0 -99 56 -99
99 l0 31 135 0 135 0 0 44 c0 79 -34 135 -99 162 -48 20 -100 17 -146 -9z
m141 -55 c25 -19 44 -53 44 -76 0 -14 -16 -16 -106 -16 l-106 0 7 28 c3 15 18
39 33 55 31 32 94 37 128 9z"/>
<path d="M16033 13049 c-46 -13 -83 -62 -83 -108 0 -54 33 -84 117 -106 82
-21 113 -39 113 -65 0 -59 -107 -84 -155 -35 -14 13 -25 29 -25 35 0 5 -13 10
-30 10 -37 0 -40 -23 -7 -71 30 -45 109 -68 175 -50 61 17 102 57 104 101 2
76 -23 100 -136 127 -65 15 -96 36 -96 64 0 46 102 67 140 29 11 -11 20 -24
20 -30 0 -5 14 -10 30 -10 36 0 39 20 10 67 -28 47 -101 64 -177 42z"/>
<path d="M16425 13053 c-72 -18 -117 -94 -118 -198 -1 -126 59 -197 166 -198
63 -1 111 22 137 66 25 41 25 53 -1 60 -20 5 -30 -3 -62 -47 -8 -11 -30 -20
-60 -23 -43 -5 -49 -3 -82 30 -25 25 -35 44 -35 66 l0 31 135 0 135 0 0 45 c0
121 -98 197 -215 168z m111 -71 c25 -19 44 -53 44 -76 0 -14 -16 -16 -105 -16
-100 0 -105 1 -105 21 0 12 15 36 34 55 27 27 42 34 73 34 21 0 48 -8 59 -18z"/>
<path d="M16845 13044 c-16 -8 -38 -25 -47 -37 l-18 -22 0 33 c0 27 -4 32 -25
32 l-25 0 0 -190 0 -190 29 0 29 0 4 139 c3 122 5 142 23 161 29 33 62 42 101
30 45 -15 54 -48 54 -201 l0 -129 30 0 30 0 0 145 c0 172 -10 208 -64 230 -45
19 -83 19 -121 -1z"/>
<path d="M17395 13037 c-117 -65 -120 -294 -5 -361 43 -25 122 -26 168 -2 34
17 72 69 72 97 0 23 -58 13 -65 -12 -8 -25 -55 -49 -96 -49 -43 0 -99 56 -99
99 l0 31 135 0 135 0 0 44 c0 79 -34 135 -99 162 -48 20 -100 17 -146 -9z
m141 -55 c25 -19 44 -53 44 -76 0 -14 -16 -16 -106 -16 l-106 0 7 28 c3 15 18
39 33 55 31 32 94 37 128 9z"/>
<path d="M18605 13046 c-113 -49 -142 -244 -52 -342 73 -79 217 -61 263 34 28
55 27 194 -2 242 -40 68 -136 98 -209 66z m135 -74 c35 -36 48 -106 31 -172
-15 -56 -37 -79 -85 -87 -75 -12 -119 40 -119 142 0 63 20 116 50 134 36 21
93 13 123 -17z"/>
<path d="M12320 11405 l0 -435 34 0 c71 0 66 -26 67 374 l0 361 70 -200 c38
-110 94 -276 125 -368 l57 -168 56 3 56 3 120 358 c65 196 123 357 128 357 4
0 8 -46 7 -102 -1 -57 -1 -219 -1 -360 l1 -258 38 0 c20 0 43 4 50 8 10 7 12
100 10 433 l-3 424 -75 3 -75 3 -124 -373 c-68 -205 -126 -375 -128 -377 -7
-10 -18 20 -124 335 -60 181 -117 348 -125 372 l-16 42 -74 0 -74 0 0 -435z"/>
<path d="M16920 11405 l0 -436 48 3 47 3 5 220 c4 183 8 225 22 252 51 92 198
112 258 35 19 -23 20 -41 20 -268 l0 -244 51 0 51 0 -4 263 c-3 239 -5 265
-23 295 -29 49 -79 74 -158 80 -83 6 -143 -15 -186 -64 l-31 -34 -2 162 -3
163 -47 3 -48 3 0 -436z"/>
<path d="M17930 11405 l0 -435 50 0 50 0 2 364 3 365 89 -262 c48 -144 104
-308 124 -364 l36 -103 55 0 56 0 120 360 c65 198 123 360 127 360 5 0 7 -162
6 -360 l-3 -360 48 0 c26 0 47 3 47 8 0 4 0 198 1 432 l0 425 -73 3 -73 3
-125 -376 c-68 -206 -127 -375 -131 -375 -3 0 -17 35 -31 78 -15 42 -71 209
-127 371 -56 161 -101 295 -101 297 0 2 -34 4 -75 4 l-75 0 0 -435z"/>
<path d="M20000 11678 l0 -163 -26 29 c-56 60 -162 82 -256 54 -96 -29 -167
-145 -176 -287 -8 -147 32 -246 130 -327 46 -37 168 -45 234 -15 22 10 55 34
72 52 l32 34 0 -42 c0 -41 2 -43 29 -43 65 0 61 -30 61 441 l0 429 -50 0 -50
0 0 -162z m-131 -158 c42 -12 77 -43 104 -95 18 -34 22 -57 22 -145 0 -88 -4
-111 -22 -145 -39 -74 -99 -109 -170 -98 -106 16 -163 103 -163 247 0 84 20
143 62 187 50 52 104 67 167 49z"/>
<path d="M13443 11596 c-80 -25 -133 -85 -133 -149 0 -19 6 -26 28 -29 45 -6
60 1 76 41 24 61 113 87 209 60 53 -14 73 -53 68 -131 -2 -30 -42 -46 -156
-63 -137 -20 -185 -41 -224 -96 -62 -85 -31 -213 62 -258 85 -41 228 -17 299
49 21 20 23 20 26 3 2 -10 11 -29 22 -43 16 -21 27 -24 77 -25 57 0 58 0 61
30 3 27 -1 32 -30 40 l-33 10 -5 230 c-3 155 -9 237 -17 251 -20 34 -70 72
-111 84 -50 14 -168 12 -219 -4z m249 -393 c-3 -54 -10 -86 -23 -105 -30 -41
-95 -68 -168 -68 -56 0 -66 3 -92 29 -40 40 -41 98 -1 141 24 28 39 33 142 51
63 11 119 24 124 29 18 18 23 -1 18 -77z"/>
<path d="M15459 11602 c-29 -13 -67 -48 -93 -87 l-26 -38 0 62 c0 57 -2 61
-22 61 -13 0 -33 -3 -45 -6 l-23 -6 0 -309 0 -309 49 0 50 0 3 218 c3 191 5
221 22 248 24 41 70 67 126 74 l45 5 3 48 3 47 -38 -1 c-21 0 -45 -3 -54 -7z"/>
<path d="M15785 11586 c-58 -26 -109 -80 -139 -145 -18 -39 -21 -65 -21 -166
0 -113 2 -123 29 -178 31 -60 87 -114 140 -134 42 -16 163 -15 209 1 57 21
101 59 130 116 37 72 36 80 -16 80 -38 0 -44 -3 -62 -36 -41 -76 -117 -108
-202 -85 -77 21 -121 75 -133 164 l-6 47 225 1 c124 1 230 1 235 0 5 -1 6 32
2 76 -12 141 -80 240 -187 272 -62 19 -149 13 -204 -13z m190 -76 c50 -24 81
-64 95 -122 5 -24 10 -46 10 -50 0 -5 -82 -8 -181 -8 l-182 0 7 41 c20 125
141 192 251 139z"/>
<path d="M16413 11589 c-64 -25 -98 -63 -112 -127 -17 -83 9 -140 82 -178 15
-8 77 -28 138 -44 143 -37 159 -48 159 -103 0 -52 -24 -82 -77 -96 -58 -16
-112 -13 -159 10 -34 16 -45 28 -57 62 -9 28 -19 42 -30 41 -9 -1 -30 -2 -47
-3 -36 -1 -39 -25 -11 -86 39 -87 112 -120 252 -113 71 3 93 9 132 32 84 49
117 135 86 224 -16 46 -84 86 -192 112 -132 33 -163 47 -177 80 -26 64 21 118
111 126 66 6 115 -16 138 -63 15 -30 20 -33 64 -33 56 0 57 6 21 77 -20 42
-35 57 -77 77 -65 33 -166 35 -244 5z"/>
<path d="M19059 11601 c-32 -10 -70 -31 -86 -46 -25 -26 -53 -81 -53 -106 0
-22 5 -28 28 -31 44 -6 58 1 75 37 9 19 27 41 40 49 58 38 191 27 221 -18 12
-20 20 -66 17 -103 -2 -25 -51 -43 -156 -58 -129 -18 -183 -40 -221 -90 -39
-51 -46 -137 -15 -192 34 -60 82 -87 161 -91 80 -5 122 7 190 53 42 28 50 31
50 16 0 -10 11 -30 25 -45 22 -24 31 -27 78 -24 50 3 52 4 55 33 3 27 -1 32
-30 40 l-33 10 -5 230 c-6 266 -9 278 -94 320 -42 21 -63 25 -135 24 -48 0
-98 -4 -112 -8z m243 -398 c-5 -93 -9 -101 -63 -139 -38 -26 -50 -29 -122 -29
-74 0 -80 2 -103 28 -36 43 -34 107 6 140 16 14 53 30 82 37 101 21 183 37
193 39 7 1 9 -28 7 -76z"/>
<path d="M20360 11583 c-59 -30 -100 -85 -100 -136 0 -27 1 -28 47 -25 39 2
48 7 53 25 8 36 36 61 81 73 55 15 141 4 173 -21 22 -17 26 -29 26 -73 0 -38
-5 -57 -17 -68 -11 -10 -64 -23 -133 -33 -63 -9 -134 -25 -158 -37 -58 -27
-94 -77 -100 -137 -11 -122 64 -198 199 -200 69 -1 110 12 172 55 40 29 47 31
47 15 0 -10 11 -30 25 -45 22 -24 31 -27 78 -24 51 3 52 4 55 36 3 26 0 32
-17 32 -47 0 -51 17 -51 243 0 240 -8 271 -77 316 -33 21 -52 25 -143 28 -99
3 -108 2 -160 -24z m280 -384 c0 -80 0 -82 -36 -114 -44 -40 -107 -59 -176
-53 -67 7 -98 39 -98 102 0 58 33 91 103 105 29 6 84 16 122 24 39 8 73 15 78
16 4 0 7 -36 7 -80z"/>
<path d="M13930 11586 c0 -6 45 -145 100 -309 55 -163 100 -302 100 -309 0
-18 -40 -122 -56 -142 -11 -15 -26 -20 -64 -19 l-50 1 0 -39 c0 -34 4 -41 27
-50 38 -14 98 -2 134 28 37 32 67 90 112 219 19 54 70 191 112 304 67 179 115
314 115 326 0 2 -22 4 -49 4 l-49 0 -15 -47 c-20 -66 -125 -360 -145 -406
l-16 -38 -21 58 c-12 32 -49 141 -82 243 l-59 184 -47 2 c-30 1 -47 -2 -47
-10z"/>
<path d="M14580 11334 c0 -308 2 -315 79 -358 39 -21 62 -26 116 -26 80 0 121
17 169 70 19 21 37 36 40 32 3 -3 6 -23 6 -44 0 -38 0 -38 40 -38 l40 0 0 316
0 315 -42 -3 -43 -3 -5 -210 c-5 -199 -6 -213 -30 -260 -32 -65 -77 -95 -141
-95 -65 0 -95 13 -119 52 -18 31 -20 51 -20 269 l0 237 -22 6 c-13 3 -33 6
-45 6 l-23 0 0 -266z"/>
<path d="M20875 11588 c-5 -12 50 -179 165 -500 l42 -118 49 0 c50 0 50 0 70
48 12 26 36 88 54 137 18 50 60 160 93 245 86 223 83 202 23 198 l-51 -3 -29
-75 c-15 -41 -32 -86 -36 -100 -19 -64 -108 -316 -114 -323 -4 -4 -29 59 -55
140 -27 82 -65 195 -85 253 l-36 105 -43 3 c-28 2 -44 -1 -47 -10z"/>
<path d="M9224 9641 c-2 -2 -4 -121 -4 -263 l0 -258 35 0 35 0 0 120 0 120
125 0 125 0 0 30 0 30 -125 0 -125 0 0 85 0 85 141 0 140 0 -3 26 -3 26 -168
2 c-93 0 -171 -1 -173 -3z"/>
<path d="M13144 9636 c-36 -16 -44 -32 -44 -92 0 -40 -2 -44 -25 -44 -20 0
-25 -5 -25 -25 0 -20 5 -25 25 -25 l25 0 0 -165 0 -165 30 0 30 0 0 165 0 165
30 0 c25 0 30 4 30 25 0 21 -5 25 -30 25 -28 0 -30 2 -30 40 0 40 20 63 48 53
10 -4 13 3 10 23 -4 34 -27 40 -74 20z"/>
<path d="M13693 9643 c-10 -3 -13 -66 -13 -264 l0 -259 30 0 30 0 0 259 c0
227 -2 260 -16 265 -9 3 -16 6 -17 5 -1 0 -8 -3 -14 -6z"/>
<path d="M13853 9643 c-10 -3 -13 -66 -13 -264 l0 -259 30 0 30 0 0 259 c0
227 -2 260 -16 265 -9 3 -16 6 -17 5 -1 0 -8 -3 -14 -6z"/>
<path d="M16333 9643 c-10 -3 -13 -66 -13 -264 l0 -259 30 0 30 0 0 259 c0
227 -2 260 -16 265 -9 3 -16 6 -17 5 -1 0 -8 -3 -14 -6z"/>
<path d="M17093 9643 c-7 -2 -13 -20 -13 -39 0 -31 3 -34 30 -34 27 0 30 3 30
34 0 22 -6 36 -16 40 -9 3 -16 6 -17 5 -1 0 -8 -3 -14 -6z"/>
<path d="M18904 9636 c-36 -16 -44 -32 -44 -92 0 -40 -2 -44 -25 -44 -20 0
-25 -5 -25 -25 0 -20 5 -25 25 -25 l25 0 0 -165 0 -165 30 0 30 0 0 165 0 165
30 0 c25 0 30 4 30 25 0 21 -5 25 -30 25 -28 0 -30 2 -30 40 0 40 20 63 48 53
10 -4 13 3 10 23 -4 34 -27 40 -74 20z"/>
<path d="M21093 9643 c-10 -3 -13 -66 -13 -264 l0 -259 33 0 32 0 -5 262 c-5
274 -6 279 -47 261z"/>
<path d="M21253 9643 c-7 -2 -13 -20 -13 -39 0 -31 3 -34 30 -34 27 0 30 3 30
34 0 22 -6 36 -16 40 -9 3 -16 6 -17 5 -1 0 -8 -3 -14 -6z"/>
<path d="M16900 9550 c0 -46 -2 -50 -24 -50 -17 0 -25 -7 -28 -24 -4 -21 -1
-25 21 -28 l26 -3 3 -154 c1 -88 7 -160 13 -167 14 -17 63 -27 89 -19 13 4 20
15 20 31 0 20 -5 24 -30 24 l-30 0 0 145 0 145 30 0 c25 0 30 4 30 25 0 21 -5
25 -30 25 -29 0 -30 1 -30 50 0 49 -1 50 -30 50 -29 0 -30 -1 -30 -50z"/>
<path d="M9734 9499 c-42 -12 -90 -68 -105 -121 -13 -50 -6 -146 15 -186 63
-121 238 -117 297 8 27 57 24 165 -7 225 -34 68 -117 98 -200 74z m129 -79
c71 -84 29 -260 -61 -260 -79 0 -115 46 -115 145 0 63 20 116 50 134 10 6 37
11 60 11 34 0 46 -5 66 -30z"/>
<path d="M10154 9488 c-16 -12 -34 -29 -41 -38 -10 -13 -12 -10 -13 18 0 27
-4 32 -25 32 l-25 0 0 -190 0 -190 30 0 30 0 0 129 c0 124 1 131 25 160 17 19
37 31 58 33 28 3 32 7 32 33 0 39 -30 45 -71 13z"/>
<path d="M10545 9495 c-22 -8 -41 -15 -42 -15 -10 -1 -33 -66 -33 -95 0 -49
34 -79 118 -100 86 -23 112 -39 112 -70 0 -67 -145 -76 -170 -10 -12 32 -70
37 -70 6 0 -37 43 -85 90 -99 121 -35 237 42 209 141 -11 41 -57 68 -146 87
-28 6 -59 20 -69 31 -17 19 -17 23 -3 47 25 46 121 43 139 -3 7 -19 17 -25 40
-25 34 0 38 15 15 59 -16 31 -77 61 -123 61 -15 -1 -45 -7 -67 -15z"/>
<path d="M11316 9490 c-66 -33 -94 -89 -95 -189 -1 -45 5 -77 19 -105 65 -134
262 -116 294 27 6 25 4 27 -24 27 -24 0 -32 -6 -44 -34 -16 -39 -42 -56 -83
-56 -80 0 -124 101 -93 212 21 74 106 103 155 53 14 -13 25 -31 25 -40 0 -10
10 -15 30 -15 24 0 30 4 30 20 0 39 -30 81 -73 101 -54 24 -93 24 -141 -1z"/>
<path d="M11685 9496 c-73 -31 -110 -111 -103 -217 8 -113 65 -173 164 -173
65 0 117 33 139 87 21 51 19 57 -14 57 -22 0 -31 -6 -41 -30 -16 -39 -46 -60
-85 -60 -82 0 -126 99 -95 212 13 46 52 78 95 78 38 0 85 -33 85 -61 0 -14 7
-19 30 -19 25 0 30 4 30 24 0 12 -10 38 -23 57 -35 53 -118 73 -182 45z"/>
<path d="M12039 9487 c-61 -32 -93 -96 -93 -187 2 -140 94 -222 213 -190 76
20 143 109 91 123 -12 3 -26 -1 -33 -10 -44 -54 -57 -63 -98 -63 -53 0 -109
51 -109 99 l0 31 136 0 136 0 -4 60 c-5 72 -27 106 -88 138 -56 28 -95 28
-151 -1z m131 -50 c25 -19 50 -60 50 -79 0 -16 -11 -18 -105 -18 -100 0 -105
1 -105 21 0 12 15 36 34 55 27 27 42 34 73 34 21 0 45 -6 53 -13z"/>
<path d="M12433 9499 c-41 -12 -83 -62 -83 -99 0 -67 33 -96 135 -121 68 -16
95 -34 95 -64 0 -32 -35 -55 -83 -55 -48 0 -75 14 -87 46 -7 18 -17 24 -41 24
-30 0 -31 -1 -25 -32 14 -72 94 -108 192 -88 55 12 102 51 105 88 7 76 -26
111 -127 136 -74 19 -104 38 -104 67 0 46 102 67 140 29 11 -11 20 -24 20 -30
0 -5 14 -10 30 -10 34 0 38 15 15 59 -25 49 -107 72 -182 50z"/>
<path d="M12785 9495 c-22 -8 -41 -15 -42 -15 -10 -1 -33 -66 -33 -95 0 -49
34 -79 118 -100 86 -23 112 -39 112 -70 0 -67 -145 -76 -170 -10 -7 19 -17 25
-41 25 -30 0 -31 -1 -25 -32 9 -45 40 -74 94 -88 120 -30 228 46 201 143 -11
41 -57 68 -146 87 -28 6 -59 20 -69 31 -17 19 -17 23 -3 47 25 46 121 43 139
-3 7 -19 17 -25 40 -25 34 0 38 15 15 59 -16 31 -77 61 -123 61 -15 -1 -45 -7
-67 -15z"/>
<path d="M14645 9496 c-73 -31 -110 -111 -103 -217 8 -113 65 -173 164 -173
65 0 117 33 139 87 21 51 19 57 -14 57 -22 0 -31 -6 -41 -30 -16 -39 -46 -60
-85 -60 -82 0 -126 99 -95 212 13 46 52 78 95 78 38 0 85 -33 85 -61 0 -14 7
-19 30 -19 25 0 30 4 30 24 0 12 -10 38 -23 57 -35 53 -118 73 -182 45z"/>
<path d="M15014 9499 c-42 -12 -90 -68 -105 -121 -13 -50 -6 -146 15 -186 63
-121 238 -117 297 8 27 57 24 165 -7 225 -34 68 -117 98 -200 74z m129 -79
c71 -84 29 -260 -61 -260 -79 0 -115 46 -115 145 0 63 20 116 50 134 10 6 37
11 60 11 34 0 46 -5 66 -30z"/>
<path d="M15450 9499 c-14 -5 -35 -20 -47 -31 l-23 -21 0 26 c0 22 -5 27 -25
27 l-25 0 0 -190 0 -190 30 0 30 0 0 139 c0 131 1 142 23 166 17 21 32 27 62
27 60 0 65 -13 65 -185 l0 -148 31 3 30 3 3 133 c2 114 6 137 23 159 27 38 71
48 103 24 25 -18 25 -21 28 -170 l3 -151 29 0 30 0 0 164 c0 160 -1 166 -24
193 -21 24 -32 28 -78 28 -40 0 -61 -6 -86 -24 l-33 -23 -24 22 c-27 25 -88
35 -125 19z"/>
<path d="M16040 9499 c-14 -5 -35 -20 -47 -31 l-23 -21 0 27 c0 24 -3 27 -27
24 l-28 -3 0 -265 0 -265 28 -3 27 -3 0 95 c0 53 2 96 5 96 3 0 20 -10 36 -22
22 -16 45 -23 78 -23 102 0 167 88 159 214 -5 76 -29 133 -68 161 -34 24 -105
34 -140 19z m95 -65 c28 -18 55 -81 55 -129 0 -78 -51 -145 -112 -145 -105 0
-141 206 -49 277 22 17 77 16 106 -3z"/>
<path d="M16560 9488 c-122 -62 -128 -294 -10 -362 71 -42 181 -18 220 47 27
44 25 62 -5 63 -19 2 -30 -6 -40 -27 -19 -36 -43 -49 -90 -49 -49 0 -105 53
-105 99 l0 31 136 0 136 0 -4 60 c-3 39 -11 70 -24 88 -25 34 -98 72 -139 72
-17 0 -51 -10 -75 -22z m149 -73 c17 -20 31 -45 31 -55 0 -19 -7 -20 -105 -20
-116 0 -122 4 -88 60 20 35 47 48 94 49 30 1 43 -6 68 -34z"/>
<path d="M17365 9494 c-16 -8 -38 -25 -47 -37 l-18 -22 0 33 c0 27 -4 32 -25
32 l-25 0 0 -190 0 -190 29 0 29 0 4 139 c3 122 5 142 23 161 28 31 58 40 98
29 49 -13 57 -40 57 -194 l0 -135 30 0 30 0 0 145 c0 172 -10 208 -64 230 -45
19 -83 19 -121 -1z"/>
<path d="M17710 9488 c-63 -33 -90 -88 -90 -182 0 -99 27 -152 93 -185 42 -21
53 -22 86 -13 20 7 46 21 58 32 32 29 36 25 28 -27 -8 -57 -34 -89 -80 -97
-43 -8 -105 16 -112 44 -4 14 -14 20 -34 20 -35 0 -37 -15 -6 -61 32 -48 97
-67 171 -50 107 24 128 82 124 351 l-3 175 -25 0 c-19 0 -26 -6 -28 -24 l-4
-23 -28 27 c-39 38 -93 43 -150 13z m135 -62 c23 -23 45 -82 45 -121 0 -78
-48 -145 -103 -145 -73 0 -114 67 -104 174 5 52 10 65 36 88 41 36 92 38 126
4z"/>
<path d="M18315 9492 c-46 -22 -60 -36 -69 -74 -6 -26 -4 -28 23 -28 21 0 34
7 42 23 7 12 17 25 23 29 18 12 101 9 119 -4 18 -15 29 -59 18 -77 -4 -6 -44
-18 -89 -26 -91 -16 -114 -25 -136 -57 -25 -35 -21 -110 7 -136 50 -47 117
-51 186 -11 27 16 36 17 42 7 5 -7 9 -16 9 -19 0 -11 44 -19 68 -12 20 5 33
43 15 43 -30 1 -36 22 -40 146 -2 71 -6 139 -8 150 -12 54 -135 81 -210 46z
m160 -224 c-1 -18 -3 -41 -3 -50 -5 -45 -131 -77 -166 -42 -20 19 -21 68 -2
83 13 11 120 38 156 40 12 1 16 -8 15 -31z"/>
<path d="M19165 9499 c-11 -6 -30 -23 -42 -38 l-23 -26 0 33 c0 27 -3 32 -25
32 l-25 0 0 -180 c0 -99 -1 -183 -2 -187 -2 -5 12 -9 30 -11 l32 -3 0 130 c0
124 1 131 25 160 17 19 37 31 58 33 28 3 32 7 32 33 0 34 -25 43 -60 24z"/>
<path d="M19360 9488 c-122 -62 -128 -294 -10 -362 71 -42 181 -18 220 47 27
44 25 62 -5 63 -19 2 -30 -6 -40 -27 -19 -36 -43 -49 -90 -49 -49 0 -105 53
-105 99 l0 31 136 0 136 0 -4 60 c-3 39 -11 70 -24 88 -25 34 -98 72 -139 72
-17 0 -51 -10 -75 -22z m149 -73 c17 -20 31 -45 31 -55 0 -19 -7 -20 -105 -20
-116 0 -122 4 -88 60 20 35 47 48 94 49 30 1 43 -6 68 -34z"/>
<path d="M19760 9488 c-122 -62 -128 -294 -10 -362 71 -42 181 -18 220 47 27
44 25 62 -5 63 -19 2 -30 -6 -40 -27 -19 -36 -43 -49 -90 -49 -49 0 -105 53
-105 99 l0 31 136 0 136 0 -4 60 c-3 39 -11 70 -24 88 -25 34 -98 72 -139 72
-17 0 -51 -10 -75 -22z m149 -73 c17 -20 31 -45 31 -55 0 -19 -7 -20 -105 -20
-116 0 -122 4 -88 60 20 35 47 48 94 49 30 1 43 -6 68 -34z"/>
<path d="M20374 9499 c-42 -12 -90 -68 -105 -121 -13 -50 -6 -146 15 -186 63
-121 238 -117 297 8 27 57 24 165 -7 225 -36 70 -115 99 -200 74z m129 -79
c71 -84 29 -260 -61 -260 -79 0 -115 46 -115 145 0 63 20 116 50 134 10 6 37
11 60 11 34 0 46 -5 66 -30z"/>
<path d="M20805 9494 c-16 -8 -38 -25 -47 -37 l-18 -22 0 33 c0 27 -4 32 -25
32 l-25 0 0 -190 0 -190 29 0 29 0 4 139 c3 122 5 142 23 161 28 31 58 40 98
29 49 -13 57 -40 57 -194 l0 -135 30 0 30 0 0 145 c0 172 -10 208 -64 230 -45
19 -83 19 -121 -1z"/>
<path d="M21525 9494 c-16 -8 -38 -25 -47 -37 l-18 -22 0 33 c0 27 -4 32 -25
32 l-25 0 0 -190 0 -190 29 0 29 0 4 139 c3 122 5 142 23 161 28 31 58 40 98
29 49 -13 57 -40 57 -194 l0 -135 30 0 30 0 0 145 c0 172 -10 208 -64 230 -45
19 -83 19 -121 -1z"/>
<path d="M21879 9487 c-61 -32 -93 -96 -93 -187 2 -140 94 -222 213 -190 76
20 143 109 91 123 -12 3 -26 -1 -33 -10 -44 -54 -57 -63 -98 -63 -53 0 -109
51 -109 99 l0 31 136 0 136 0 -4 60 c-5 70 -26 104 -84 137 -50 29 -100 29
-155 0z m131 -50 c25 -19 50 -60 50 -79 0 -16 -11 -18 -105 -18 -100 0 -105 1
-105 21 0 12 15 36 34 55 27 27 42 34 73 34 21 0 45 -6 53 -13z"/>
<path d="M22485 9496 c-73 -31 -110 -111 -103 -217 8 -113 65 -173 164 -173
65 0 117 33 139 87 21 51 19 57 -14 57 -22 0 -31 -6 -41 -30 -16 -39 -46 -60
-85 -60 -82 0 -126 99 -95 212 13 46 52 78 95 78 38 0 85 -33 85 -61 0 -14 7
-19 30 -19 25 0 30 4 30 24 0 12 -10 38 -23 57 -35 53 -118 73 -182 45z"/>
<path d="M22854 9499 c-86 -25 -136 -155 -104 -271 42 -150 245 -169 311 -28
27 57 24 165 -7 225 -34 68 -117 98 -200 74z m129 -79 c71 -84 29 -260 -61
-260 -79 0 -115 46 -115 145 0 63 20 116 50 134 10 6 37 11 60 11 34 0 46 -5
66 -30z"/>
<path d="M23674 9488 c-16 -12 -34 -29 -41 -38 -10 -13 -12 -10 -13 18 0 27
-4 32 -25 32 l-25 0 0 -190 0 -190 30 0 30 0 0 129 c0 124 1 131 25 160 17 19
37 31 58 33 28 3 32 7 32 33 0 39 -30 45 -71 13z"/>
<path d="M23867 9495 c-21 -7 -40 -15 -41 -17 -38 -51 -45 -87 -25 -132 13
-29 52 -49 124 -67 68 -16 95 -34 95 -64 0 -32 -35 -55 -83 -55 -48 0 -75 14
-87 46 -7 18 -17 24 -41 24 -30 0 -31 -1 -25 -32 14 -71 97 -109 191 -88 56
13 82 32 100 75 30 70 -12 122 -122 149 -73 19 -103 38 -103 67 0 46 102 67
140 29 11 -11 20 -24 20 -30 0 -5 14 -10 30 -10 34 0 38 15 15 59 -16 31 -77
61 -123 61 -15 -1 -44 -7 -65 -15z"/>
<path d="M24240 9488 c-122 -62 -128 -294 -10 -362 71 -42 181 -18 220 47 27
44 25 62 -5 63 -19 2 -30 -6 -40 -27 -19 -36 -43 -49 -90 -49 -49 0 -105 53
-105 99 l0 31 136 0 136 0 -4 60 c-3 39 -11 70 -24 88 -25 34 -98 72 -139 72
-17 0 -51 -10 -75 -22z m149 -73 c17 -20 31 -45 31 -55 0 -19 -7 -20 -105 -20
-116 0 -122 4 -88 60 20 35 47 48 94 49 30 1 43 -6 68 -34z"/>
<path d="M10842 9331 c3 -150 5 -171 22 -190 45 -50 153 -47 202 6 l24 26 0
-27 c0 -21 5 -26 25 -26 l25 0 0 190 0 190 -30 0 -30 0 0 -125 c0 -174 -20
-215 -102 -215 -68 0 -73 10 -76 184 l-3 156 -30 0 -30 0 3 -169z"/>
<path d="M13282 9331 c3 -150 5 -171 22 -190 43 -47 150 -47 197 0 24 24 29
24 29 -1 0 -15 7 -20 25 -20 l25 0 0 190 0 190 -30 0 -30 0 0 -130 c0 -172
-19 -210 -102 -210 -68 0 -78 25 -78 199 l0 141 -31 0 -30 0 3 -169z"/>
<path d="M13976 9478 c4 -13 33 -99 64 -193 l58 -170 -22 -45 c-18 -38 -26
-45 -53 -48 -40 -4 -46 -37 -9 -53 39 -18 89 12 114 69 38 85 169 451 164 457
-3 3 -17 5 -31 5 -25 0 -30 -8 -76 -140 -27 -77 -51 -140 -55 -140 -3 0 -26
62 -51 138 -45 137 -45 137 -78 140 -30 3 -32 2 -25 -20z"/>
<path d="M17087 9493 c-4 -3 -7 -89 -7 -190 l0 -183 30 0 30 0 0 190 0 190
-23 0 c-13 0 -27 -3 -30 -7z"/>
<path d="M21247 9493 c-4 -3 -7 -89 -7 -190 l0 -183 30 0 30 0 0 190 0 190
-23 0 c-13 0 -27 -3 -30 -7z"/>
<path d="M23162 9331 c3 -150 5 -171 22 -190 45 -50 153 -47 202 6 l24 26 0
-27 c0 -21 5 -26 25 -26 l25 0 0 190 0 190 -30 0 -30 0 0 -125 c0 -174 -20
-215 -102 -215 -68 0 -73 10 -76 184 l-3 156 -30 0 -30 0 3 -169z"/>
<path d="M16614 8426 c-66 -31 -98 -80 -98 -152 0 -55 18 -93 57 -119 13 -8
72 -28 133 -43 158 -42 194 -65 194 -122 0 -65 -66 -110 -161 -110 -86 0 -152
44 -166 111 -5 27 -42 47 -63 34 -17 -11 -10 -69 13 -110 33 -58 98 -95 183
-102 139 -11 238 42 263 142 24 95 -26 169 -136 200 -185 52 -205 59 -224 83
-23 29 -24 53 -4 91 37 73 196 77 250 6 14 -17 25 -42 25 -54 0 -20 5 -22 38
-19 35 3 37 5 33 33 -7 66 -61 126 -129 145 -65 18 -152 12 -208 -14z"/>
<path d="M13680 8135 l0 -305 40 0 40 0 0 130 0 130 125 0 c120 0 127 -1 150
-25 22 -21 25 -33 25 -92 0 -37 5 -85 11 -105 9 -36 12 -38 53 -38 52 0 61 8
39 32 -11 12 -18 47 -24 108 -7 94 -22 130 -60 151 l-21 11 24 16 c52 36 68
68 68 135 0 62 -27 108 -80 135 -41 20 -58 22 -217 22 l-173 0 0 -305z m345
223 c31 -14 50 -71 41 -123 -12 -60 -48 -75 -188 -75 l-118 0 0 105 0 105 120
0 c69 0 130 -5 145 -12z"/>
<path d="M16310 8185 l0 -256 -25 -24 c-24 -25 -73 -33 -110 -19 -24 9 -45 58
-45 104 l0 40 -40 0 -40 0 0 -47 c0 -60 31 -123 72 -148 24 -14 51 -20 100
-20 72 0 102 14 142 69 20 26 21 43 24 292 l3 264 -41 0 -40 0 0 -255z"/>
<path d="M17302 8398 c3 -40 5 -43 33 -43 28 0 30 3 33 43 l3 42 -36 0 -36 0
3 -42z"/>
<path d="M18200 8135 l0 -305 40 0 40 0 0 140 0 140 160 0 160 0 0 -140 0
-140 40 0 40 0 0 305 0 305 -40 0 -40 0 0 -130 0 -130 -160 0 -160 0 0 130 0
130 -40 0 -40 0 0 -305z"/>
<path d="M18800 8394 c0 -45 0 -45 33 -42 30 3 32 6 35 46 l3 42 -35 0 c-36 0
-36 0 -36 -46z"/>
<path d="M19750 8334 l0 -105 -32 22 c-46 33 -132 38 -186 10 -62 -32 -94 -93
-100 -192 -5 -92 12 -150 60 -205 56 -63 160 -69 231 -13 l37 30 0 -26 c0 -21
5 -25 30 -25 l30 0 0 305 0 305 -35 0 -35 0 0 -106z m-76 -129 c43 -21 67 -65
73 -136 10 -108 -40 -189 -116 -189 -87 0 -139 77 -128 190 6 69 24 102 70
130 39 24 59 25 101 5z"/>
<path d="M19932 8398 c3 -40 5 -43 36 -46 32 -3 32 -3 32 42 0 46 0 46 -36 46
l-35 0 3 -42z"/>
<path d="M15650 8330 l0 -60 -30 0 c-27 0 -30 -3 -30 -30 0 -27 3 -30 30 -30
l30 0 0 -185 0 -184 31 -16 c16 -9 47 -15 67 -13 32 3 37 7 40 30 3 24 -1 27
-30 30 l-33 3 -3 168 -2 167 35 0 c32 0 35 2 35 30 0 28 -3 30 -35 30 l-35 0
0 60 0 60 -35 0 -35 0 0 -60z"/>
<path d="M14360 8258 c-72 -37 -110 -110 -110 -213 0 -141 81 -235 201 -235
81 0 179 72 179 131 0 28 -66 27 -75 -1 -20 -62 -127 -82 -184 -34 -27 22 -51
75 -51 111 0 9 42 13 163 15 l162 3 -3 55 c-4 70 -27 116 -75 154 -53 42 -141
48 -207 14z m138 -52 c40 -21 62 -49 69 -90 l6 -36 -123 0 -123 0 6 36 c13 80
96 126 165 90z"/>
<path d="M14811 8258 c-29 -14 -48 -32 -57 -54 -22 -53 -19 -64 20 -64 28 0
36 5 46 29 18 45 102 67 153 40 30 -16 37 -28 37 -66 0 -38 -15 -48 -85 -58
-145 -19 -195 -52 -202 -132 -7 -85 52 -143 144 -143 39 0 115 30 127 49 10
16 26 14 26 -4 0 -22 45 -47 77 -43 22 2 29 9 31 29 2 21 -2 28 -22 33 l-26 6
0 163 c0 181 -5 198 -66 223 -52 22 -151 18 -203 -8z m199 -268 c0 -61 -25
-92 -89 -111 -77 -23 -142 20 -126 84 8 29 40 46 120 63 98 20 95 21 95 -36z"/>
<path d="M15291 8263 c-98 -49 -142 -234 -82 -351 48 -94 156 -128 251 -79 52
26 78 59 87 110 l6 37 -37 0 c-30 0 -36 -4 -36 -21 0 -11 -13 -34 -29 -50 -24
-23 -38 -29 -73 -29 -83 0 -122 53 -122 165 1 128 66 196 158 165 26 -8 40
-22 53 -50 15 -34 23 -40 51 -40 38 0 41 15 13 76 -34 74 -156 108 -240 67z"/>
<path d="M17640 8273 c-8 -3 -30 -19 -47 -36 l-33 -31 0 32 c0 30 -2 32 -35
32 l-36 0 1 -220 1 -220 39 0 38 0 1 149 c0 117 3 156 16 180 30 59 113 79
159 39 26 -23 26 -24 27 -195 l1 -173 34 0 34 0 0 188 c0 205 -3 218 -60 247
-28 15 -109 19 -140 8z"/>
<path d="M19140 8273 c-8 -3 -30 -19 -47 -36 l-33 -31 0 32 c0 30 -2 32 -34
32 l-35 0 -1 -220 0 -220 38 0 39 0 1 150 c1 128 3 156 19 183 34 58 108 75
156 36 l27 -20 2 -172 3 -172 33 -3 c21 -2 32 1 32 10 4 117 -3 365 -11 380
-18 34 -70 58 -124 57 -27 0 -57 -3 -65 -6z"/>
<path d="M17300 8050 l0 -220 35 0 35 0 0 220 0 220 -35 0 -35 0 0 -220z"/>
<path d="M18800 8050 l0 -220 35 0 35 0 0 220 0 220 -35 0 -35 0 0 -220z"/>
<path d="M19930 8050 l0 -220 35 0 35 0 0 220 0 220 -35 0 -35 0 0 -220z"/>
<path d="M630 3700 l0 -3050 3245 0 3245 0 0 70 0 70 -3170 0 -3170 0 0 2980
0 2980 -75 0 -75 0 0 -3050z"/>
<path d="M33644 6073 c-4 -10 -6 -21 -6 -25 1 -5 -3 -7 -8 -5 -6 1 -177 -164
-381 -368 l-370 -370 5 -950 c3 -522 6 -1179 6 -1460 0 -280 4 -535 9 -565 6
-36 7 14 4 147 -5 150 -3 203 5 203 8 0 13 -38 14 -122 3 -160 7 -74 17 350 8
314 8 299 6 -223 -2 -500 -2 -522 5 -205 4 195 8 357 10 360 2 3 6 -13 9 -35
7 -44 -2 -40 111 -44 l40 -1 0 -75 c0 -42 4 -76 10 -76 6 -1 110 -2 233 -3
l222 -1 7 40 c4 22 5 -52 3 -165 -2 -126 0 -186 5 -155 5 28 10 210 12 405 2
277 4 205 8 -330 5 -624 5 -646 8 -242 2 384 4 442 17 442 13 0 15 -121 18
-1002 1 -552 3 233 4 1745 2 1590 -1 2747 -6 2747 -5 0 -12 -8 -17 -17z m13
-2875 c-1 -68 -3 -13 -3 122 0 135 2 190 3 123 2 -68 2 -178 0 -245z m-740
-320 c-1 -68 -3 -13 -3 122 0 135 2 190 3 123 2 -68 2 -178 0 -245z"/>
<path d="M15600 5275 c0 -168 1 -175 20 -175 18 0 20 7 20 75 l0 75 71 0 c65
0 73 2 100 29 23 23 29 38 29 71 0 33 -6 48 -29 71 -28 28 -33 29 -120 29
l-91 0 0 -175z m180 115 c11 -11 20 -31 20 -44 0 -37 -35 -56 -102 -56 l-58 0
0 60 0 60 60 0 c47 0 64 -4 80 -20z"/>
<path d="M16580 5425 c0 -18 5 -25 20 -25 15 0 20 7 20 25 0 18 -5 25 -20 25
-15 0 -20 -7 -20 -25z"/>
<path d="M16860 5384 c0 -59 -1 -64 -16 -50 -37 38 -113 30 -147 -15 -38 -52
-32 -164 12 -203 32 -29 88 -32 122 -7 23 17 29 19 29 6 0 -8 9 -15 20 -15 19
0 20 7 20 175 0 168 -1 175 -20 175 -18 0 -20 -7 -20 -66z m-29 -83 c20 -16
24 -28 24 -76 0 -48 -4 -60 -24 -76 -13 -10 -33 -19 -46 -19 -13 0 -33 9 -46
19 -20 16 -24 28 -24 76 0 48 4 60 24 76 13 10 33 19 46 19 13 0 33 -9 46 -19z"/>
<path d="M17400 5383 c0 -38 -4 -63 -8 -57 -37 55 -140 36 -168 -31 -25 -61
-12 -150 29 -183 30 -25 86 -27 118 -3 23 17 29 19 29 6 0 -8 9 -15 20 -15 19
0 20 7 20 175 0 168 -1 175 -20 175 -18 0 -20 -7 -20 -67z m-29 -82 c20 -16
24 -28 24 -76 0 -48 -4 -60 -24 -76 -13 -10 -33 -19 -46 -19 -13 0 -33 9 -46
19 -20 16 -24 28 -24 76 0 48 4 60 24 76 13 10 33 19 46 19 13 0 33 -9 46 -19z"/>
<path d="M17630 5275 c0 -168 1 -175 20 -175 12 0 20 7 20 18 1 16 1 16 14 -1
22 -29 79 -33 115 -8 76 54 62 215 -21 245 -30 11 -71 2 -92 -20 -15 -14 -16
-9 -16 50 0 59 -2 66 -20 66 -19 0 -20 -7 -20 -175z m151 26 c20 -16 24 -28
24 -76 0 -48 -4 -60 -24 -76 -13 -10 -31 -19 -41 -19 -10 0 -28 9 -41 19 -20
16 -24 29 -24 74 0 87 50 123 106 78z"/>
<path d="M15972 5338 c-19 -19 -22 -20 -22 -5 0 10 -8 17 -20 17 -19 0 -20 -7
-20 -125 0 -118 1 -125 20 -125 18 0 20 7 20 80 0 94 13 129 52 137 19 4 28
12 28 24 0 26 -30 24 -58 -3z"/>
<path d="M16120 5348 c-60 -31 -79 -155 -33 -216 39 -53 126 -53 166 -1 38 52
32 164 -13 204 -24 22 -89 29 -120 13z m91 -47 c20 -16 24 -28 24 -76 0 -48
-4 -60 -24 -76 -33 -27 -66 -24 -91 9 -18 22 -21 36 -17 76 7 77 58 108 108
67z"/>
<path d="M17014 5350 c-54 -21 -81 -135 -47 -200 10 -19 29 -41 43 -48 38 -19
101 -8 127 23 44 51 16 77 -31 30 -38 -38 -81 -33 -105 12 -21 40 -15 43 79
43 l90 0 0 28 c0 39 -31 95 -60 109 -28 14 -65 16 -96 3z m91 -55 c39 -38 32
-45 -45 -45 -77 0 -88 12 -50 50 27 27 66 25 95 -5z"/>
<path d="M16320 5341 c0 -4 18 -59 40 -121 22 -62 40 -114 40 -116 0 -2 10 -4
23 -4 20 0 28 15 68 125 45 121 46 125 24 125 -18 0 -26 -14 -56 -100 l-34
-101 -33 101 c-27 80 -37 100 -53 100 -10 0 -19 -4 -19 -9z"/>
<path d="M16580 5225 c0 -118 1 -125 20 -125 19 0 20 7 20 125 0 118 -1 125
-20 125 -19 0 -20 -7 -20 -125z"/>
<path d="M17884 5333 c4 -10 23 -67 43 -127 33 -100 35 -112 22 -135 -8 -14
-24 -27 -36 -29 -15 -2 -19 -8 -16 -23 7 -24 44 -25 66 -1 15 16 127 303 127
325 0 4 -8 7 -19 7 -15 0 -26 -21 -53 -95 l-34 -96 -30 93 c-26 79 -34 94 -54
96 -19 3 -22 0 -16 -15z"/>
<path d="M13010 4579 c-59 -27 -77 -44 -108 -104 -52 -103 -39 -255 29 -338
80 -98 234 -109 327 -24 20 18 24 19 32 7 5 -8 10 -23 10 -32 0 -21 40 -25 41
-5 1 13 0 206 -1 245 0 21 -3 22 -105 22 l-105 0 0 -30 0 -30 81 0 81 0 -7
-37 c-10 -59 -37 -96 -85 -120 -49 -26 -77 -28 -135 -12 -122 34 -173 219 -94
344 64 101 224 106 281 9 17 -28 26 -34 54 -34 l34 0 -15 37 c-35 83 -102 123
-205 123 -44 0 -79 -7 -110 -21z"/>
<path d="M16748 4593 c-24 -4 -28 -9 -28 -39 0 -31 2 -34 30 -34 28 0 30 2 30
40 0 22 -1 39 -2 39 -2 -1 -15 -4 -30 -6z"/>
<path d="M18073 4592 l-42 -3 -29 -87 c-17 -48 -58 -163 -91 -257 -34 -93 -61
-171 -61 -172 0 -2 15 -3 34 -3 33 0 34 1 62 80 l27 80 102 0 102 0 27 -80
c28 -79 29 -80 62 -80 19 0 34 3 34 6 0 9 -172 498 -179 509 -3 6 -25 9 -48 7z
m45 -190 c21 -62 36 -114 34 -117 -3 -3 -41 -5 -85 -5 -59 0 -78 3 -74 13 2 6
21 60 42 120 21 59 39 106 41 104 2 -2 21 -53 42 -115z"/>
<path d="M14890 4330 l0 -260 165 0 165 0 0 30 0 30 -130 0 -130 0 0 230 0
230 -35 0 -35 0 0 -260z"/>
<path d="M19370 4499 l0 -90 -25 19 c-50 39 -140 36 -189 -7 -86 -75 -75 -285
18 -342 59 -36 152 -22 194 29 10 14 12 12 12 -11 0 -22 5 -27 25 -27 l25 0 0
260 0 260 -30 0 -30 0 0 -91z m-52 -115 c74 -52 68 -220 -10 -263 -39 -22 -96
-5 -125 38 -18 26 -23 48 -23 93 0 92 40 148 105 148 17 0 41 -7 53 -16z"/>
<path d="M14500 4500 c0 -47 -2 -50 -25 -50 -20 0 -25 -5 -25 -25 0 -20 5 -25
25 -25 l25 0 0 -159 c0 -119 3 -161 13 -170 19 -15 79 -23 95 -12 21 13 10 46
-16 47 -12 1 -25 3 -27 5 -3 4 -8 207 -6 272 1 12 9 17 32 17 26 0 30 3 27 22
-2 16 -12 24 -33 28 -29 5 -30 7 -27 53 2 46 2 47 -28 47 -29 0 -30 -1 -30
-50z"/>
<path d="M13575 4451 c-11 -5 -31 -21 -45 -36 l-25 -27 -5 29 c-4 19 -12 29
-28 31 l-22 3 0 -190 0 -191 29 0 29 0 1 126 c1 69 6 135 10 147 9 24 38 42
84 52 24 5 28 10 25 33 -3 29 -21 36 -53 23z"/>
<path d="M13789 4450 c-79 -23 -123 -95 -122 -197 1 -123 65 -198 168 -196 78
1 136 38 150 96 7 25 5 27 -24 27 -17 0 -31 -5 -31 -10 0 -6 -12 -22 -26 -35
-63 -59 -174 -8 -174 79 l0 26 136 0 136 0 -4 58 c-5 71 -34 117 -92 143 -43
20 -75 22 -117 9z m102 -60 c21 -12 49 -60 49 -85 0 -13 -17 -15 -106 -15
l-106 0 7 28 c11 47 53 82 98 82 21 0 47 -5 58 -10z"/>
<path d="M14179 4451 c-48 -15 -71 -33 -85 -66 -19 -45 -19 -45 16 -45 17 0
30 4 30 8 0 5 9 18 20 30 16 17 32 22 68 22 56 0 81 -15 87 -52 7 -38 -15 -54
-82 -62 -122 -15 -163 -45 -163 -121 0 -78 61 -121 150 -105 23 4 55 17 71 29
23 17 29 18 29 7 0 -23 41 -45 73 -39 34 7 36 36 2 51 -25 12 -25 12 -25 152
0 138 0 140 -26 163 -38 33 -108 45 -165 28z m137 -243 c-3 -24 -5 -46 -5 -51
-2 -17 -69 -47 -108 -47 -49 0 -73 20 -73 60 0 37 28 57 100 69 96 15 93 17
86 -31z"/>
<path d="M15389 4450 c-81 -24 -124 -95 -122 -202 2 -122 64 -192 169 -191 77
1 135 38 149 96 7 25 5 27 -24 27 -17 0 -31 -5 -31 -10 0 -6 -12 -22 -26 -35
-63 -59 -174 -8 -174 79 l0 26 136 0 136 0 -4 58 c-5 71 -34 117 -92 143 -43
20 -75 22 -117 9z m102 -60 c21 -12 49 -60 49 -85 0 -13 -17 -15 -106 -15
l-106 0 7 28 c11 47 53 82 98 82 21 0 47 -5 58 -10z"/>
<path d="M15779 4451 c-48 -15 -71 -33 -85 -66 -19 -45 -19 -45 16 -45 17 0
30 4 30 8 0 5 9 18 20 30 16 17 32 22 68 22 56 0 81 -15 87 -52 7 -38 -15 -54
-82 -62 -122 -15 -163 -45 -163 -121 0 -78 61 -121 150 -105 23 4 55 17 71 29
23 17 29 18 29 7 0 -23 41 -45 73 -39 34 7 36 36 2 51 -25 12 -25 12 -25 152
0 138 0 140 -26 163 -38 33 -108 45 -165 28z m137 -243 c-3 -24 -5 -46 -5 -51
-2 -17 -69 -47 -108 -47 -49 0 -73 20 -73 60 0 37 28 57 100 69 96 15 93 17
86 -31z"/>
<path d="M16215 4451 c-11 -5 -31 -21 -45 -36 l-25 -27 -5 29 c-4 19 -12 29
-28 31 l-22 3 0 -190 0 -191 29 0 29 0 1 126 c1 69 6 135 10 147 9 24 38 42
84 52 24 5 28 10 25 33 -3 29 -21 36 -53 23z"/>
<path d="M16455 4446 c-16 -7 -39 -23 -50 -36 l-20 -22 -5 28 c-4 20 -12 30
-28 32 l-22 3 0 -190 0 -191 30 0 30 0 0 134 c0 129 1 136 25 164 30 36 68 47
105 32 42 -17 50 -48 50 -195 l0 -135 28 0 27 0 -3 162 c-2 183 -8 200 -69
217 -48 14 -61 13 -98 -3z"/>
<path d="M17015 4446 c-16 -7 -39 -23 -50 -36 l-20 -22 -5 28 c-4 20 -12 30
-28 32 l-22 3 0 -190 0 -191 30 0 30 0 0 134 c0 129 1 136 25 164 30 36 68 47
105 32 42 -17 50 -48 50 -195 l0 -135 28 0 27 0 -3 162 c-2 183 -8 200 -69
217 -48 14 -61 13 -98 -3z"/>
<path d="M17362 4445 c-68 -30 -95 -78 -100 -180 -3 -69 -1 -86 20 -125 32
-61 99 -96 154 -81 20 6 51 23 67 38 l30 28 -7 -55 c-5 -34 -15 -63 -28 -77
-43 -45 -129 -41 -157 8 -12 21 -24 29 -45 29 -26 0 -28 -2 -21 -27 14 -56 64
-86 145 -87 142 -1 173 67 168 369 l-3 160 -25 0 c-17 0 -26 -7 -30 -24 -5
-22 -6 -23 -20 -6 -17 21 -71 45 -97 45 -10 -1 -33 -7 -51 -15z m127 -73 c52
-51 49 -184 -4 -238 -29 -28 -79 -32 -114 -8 -64 45 -68 195 -7 257 28 28 92
22 125 -11z"/>
<path d="M18456 4450 c-102 -32 -149 -189 -91 -306 31 -63 70 -87 142 -87 75
0 131 45 147 116 6 25 4 27 -24 27 -24 0 -32 -6 -44 -34 -34 -80 -137 -74
-172 10 -27 65 -15 155 28 202 41 43 148 15 148 -39 0 -14 7 -19 30 -19 34 0
37 13 16 65 -23 54 -112 86 -180 65z"/>
<path d="M18819 4451 c-48 -15 -71 -33 -85 -66 -19 -45 -19 -45 16 -45 17 0
30 4 30 8 0 5 9 18 20 30 16 17 32 22 68 22 56 0 81 -15 87 -52 7 -38 -15 -54
-82 -62 -122 -15 -163 -45 -163 -121 0 -78 61 -121 150 -105 23 4 55 17 71 29
23 17 29 18 29 7 0 -23 41 -45 73 -39 34 7 36 36 2 51 -25 12 -25 12 -25 152
0 138 0 140 -26 163 -38 33 -108 45 -165 28z m137 -243 c-3 -24 -5 -46 -5 -51
-2 -17 -69 -47 -108 -47 -49 0 -73 20 -73 60 0 37 28 57 100 69 96 15 93 17
86 -31z"/>
<path d="M19629 4450 c-79 -23 -123 -95 -122 -197 1 -123 65 -198 168 -196 78
1 136 38 150 96 7 25 5 27 -24 27 -17 0 -31 -5 -31 -10 0 -6 -12 -22 -26 -35
-63 -59 -174 -8 -174 79 l0 26 136 0 136 0 -4 58 c-5 71 -34 117 -92 143 -43
20 -75 22 -117 9z m102 -60 c21 -12 49 -60 49 -85 0 -13 -17 -15 -106 -15
l-106 0 7 28 c11 47 53 82 98 82 21 0 47 -5 58 -10z"/>
<path d="M20045 4447 c-17 -8 -37 -22 -45 -32 -14 -17 -15 -16 -20 6 -4 15
-14 25 -28 27 l-22 3 0 -190 0 -191 30 0 30 0 0 139 c0 133 1 141 24 167 18
21 32 28 60 28 62 0 67 -12 69 -180 l2 -149 27 -3 26 -3 4 140 c3 138 4 141
30 168 20 19 38 27 64 27 58 0 64 -16 64 -186 l0 -148 30 0 30 0 0 161 c0 96
-4 168 -11 181 -27 50 -130 59 -184 16 l-26 -20 -22 20 c-29 27 -93 36 -132
19z"/>
<path d="M16727 4443 c-4 -3 -7 -89 -7 -190 l0 -183 30 0 30 0 0 190 0 190
-23 0 c-13 0 -27 -3 -30 -7z"/>
<path d="M20505 4403 c8 -26 37 -113 64 -192 48 -139 49 -144 34 -180 -21 -51
-32 -61 -64 -61 -22 0 -29 -5 -29 -20 0 -25 30 -41 61 -33 40 10 67 42 93 112
94 250 146 396 146 408 0 10 -9 13 -27 11 -26 -3 -31 -12 -77 -140 -27 -76
-52 -138 -55 -138 -4 0 -27 62 -52 138 -45 135 -46 137 -77 140 l-31 3 14 -48z"/>
<path d="M15215 3567 c-20 -31 -45 -117 -45 -154 0 -48 59 -182 68 -155 2 6
-5 26 -14 44 -26 47 -26 190 -1 236 23 42 17 66 -8 29z"/>
<path d="M15343 3575 c-117 -51 -76 -245 52 -245 43 0 94 35 111 75 18 44 18
65 -2 114 -12 30 -25 43 -55 55 -48 19 -64 19 -106 1z m93 -21 c27 -7 54 -54
54 -93 0 -66 -36 -101 -105 -101 -69 0 -108 93 -68 161 21 36 64 48 119 33z"/>
<path d="M15870 3460 c0 -108 3 -130 15 -130 11 0 15 20 17 101 l3 100 65
-100 c91 -141 100 -138 100 29 0 109 -2 130 -15 130 -12 0 -15 -19 -15 -107
l0 -108 -54 85 c-73 115 -85 130 -101 130 -12 0 -15 -23 -15 -130z"/>
<path d="M17000 3460 c0 -109 2 -130 15 -130 8 0 15 7 15 16 0 14 2 14 22 0
50 -35 105 -1 115 71 10 73 -74 134 -121 87 -15 -14 -16 -11 -16 35 0 39 -4
51 -15 51 -13 0 -15 -21 -15 -130z m122 13 c22 -20 24 -76 2 -97 -22 -23 -71
-20 -84 3 -15 29 -12 77 6 95 20 21 53 20 76 -1z"/>
<path d="M18420 3590 c0 -3 10 -33 21 -65 25 -69 22 -171 -6 -225 -20 -39 -15
-61 7 -28 22 33 48 113 48 147 0 41 -28 126 -50 153 -11 12 -19 21 -20 18z"/>
<path d="M17663 3570 c-34 -14 -58 -70 -30 -70 7 0 17 10 22 23 11 25 58 35
81 16 30 -25 17 -58 -39 -93 -61 -39 -72 -51 -81 -88 l-6 -28 85 0 c69 0 85 3
85 15 0 12 -14 15 -65 15 -81 0 -86 17 -17 56 55 32 81 61 82 90 0 49 -66 86
-117 64z"/>
<path d="M17855 3556 c-59 -59 -36 -214 34 -224 57 -9 97 61 88 151 -8 85 -72
123 -122 73z m83 -31 c15 -32 16 -104 2 -139 -7 -20 -16 -26 -40 -26 -36 0
-50 27 -50 95 0 67 14 95 48 95 21 0 32 -7 40 -25z"/>
<path d="M18063 3570 c-34 -14 -58 -70 -30 -70 7 0 17 10 22 23 11 25 58 35
81 16 30 -25 17 -58 -39 -93 -61 -39 -72 -51 -81 -88 l-6 -28 85 0 c69 0 85 3
85 15 0 12 -14 15 -65 15 -83 0 -86 18 -11 60 63 36 86 75 68 116 -17 37 -64
52 -109 34z"/>
<path d="M18263 3570 c-37 -15 -60 -80 -28 -80 8 0 15 8 15 18 0 10 5 23 12
30 17 17 63 15 78 -2 22 -28 7 -59 -48 -96 -54 -35 -64 -47 -76 -87 -7 -23 -6
-23 78 -23 70 0 86 3 86 15 0 12 -14 15 -65 15 -79 0 -86 17 -22 54 67 40 90
69 82 104 -3 17 -12 35 -19 41 -19 16 -68 22 -93 11z"/>
<path d="M15570 3425 c0 -78 3 -95 15 -95 12 0 15 14 15 63 0 76 14 100 55 95
l30 -3 3 -77 c2 -60 6 -78 17 -78 12 0 15 16 15 75 0 62 -4 79 -20 95 -24 24
-48 25 -78 4 -20 -14 -22 -14 -22 0 0 9 -7 16 -15 16 -12 0 -15 -17 -15 -95z"/>
<path d="M16147 3500 c-50 -40 -44 -134 9 -159 40 -18 63 -13 95 18 79 80 -17
209 -104 141z m93 -29 c5 -11 10 -32 10 -46 0 -45 -17 -65 -55 -65 -24 0 -38
6 -45 19 -15 29 -12 77 6 95 22 23 71 20 84 -3z"/>
<path d="M16310 3511 c0 -6 14 -49 31 -96 40 -110 53 -109 96 5 37 98 38 100
19 100 -9 0 -23 -26 -36 -67 -13 -38 -26 -71 -29 -76 -4 -4 -18 26 -31 68 -14
44 -29 75 -37 75 -7 0 -13 -4 -13 -9z"/>
<path d="M16550 3513 c-72 -27 -79 -145 -9 -173 16 -7 40 -9 53 -6 41 10 76
56 42 56 -8 0 -16 -7 -20 -15 -8 -23 -73 -20 -86 4 -5 11 -10 22 -10 25 0 3
32 6 70 6 63 0 70 2 70 20 0 60 -56 103 -110 83z m64 -39 c27 -26 18 -34 -39
-34 -38 0 -55 4 -55 13 0 36 65 51 94 21z"/>
<path d="M16710 3425 c0 -77 3 -95 15 -95 11 0 15 17 17 71 3 75 17 99 52 86
13 -5 16 -21 16 -82 0 -60 3 -75 15 -75 12 0 15 14 15 69 0 75 12 95 52 89 21
-3 23 -8 26 -80 2 -60 6 -78 17 -78 22 0 21 137 -1 168 -18 25 -50 28 -81 7
-18 -13 -22 -13 -33 0 -16 19 -45 19 -64 -1 -15 -14 -16 -14 -16 0 0 9 -7 16
-15 16 -12 0 -15 -17 -15 -95z"/>
<path d="M17228 3500 c-60 -47 -41 -153 29 -166 35 -7 81 16 91 44 6 18 -25
15 -32 -3 -7 -18 -67 -20 -84 -3 -28 28 -13 38 58 38 68 0 70 1 70 24 0 63
-84 104 -132 66z m84 -27 c29 -26 21 -33 -37 -33 -38 0 -55 4 -55 13 0 36 59
50 92 20z"/>
<path d="M17400 3425 c0 -78 3 -95 15 -95 12 0 15 14 15 64 0 66 14 96 46 96
8 0 14 7 14 15 0 20 -19 19 -42 -2 -17 -15 -18 -15 -18 0 0 10 -7 17 -15 17
-12 0 -15 -17 -15 -95z"/>
<path d="M32893 2080 c0 -25 2 -35 4 -22 2 12 2 32 0 45 -2 12 -4 2 -4 -23z"/>
<path d="M32924 2000 c0 -69 1 -97 3 -62 2 34 2 90 0 125 -2 34 -3 6 -3 -63z"/>
<path d="M33604 1800 c0 -179 2 -252 3 -162 2 89 2 235 0 325 -1 89 -3 16 -3
-163z"/>
<path d="M32903 1840 c0 -25 2 -35 4 -22 2 12 2 32 0 45 -2 12 -4 2 -4 -23z"/>
<path d="M32903 1715 c0 -44 2 -61 4 -37 2 23 2 59 0 80 -2 20 -4 1 -4 -43z"/>
<path d="M33604 1000 c0 -91 2 -128 3 -82 2 45 2 119 0 165 -1 45 -3 8 -3 -83z"/>
<path d="M32890 884 c0 -21 4 -45 9 -53 5 -8 7 5 4 35 -7 61 -13 70 -13 18z"/>
<path d="M27858 812 c-9 -4 -27 -20 -40 -37 -12 -16 -30 -39 -40 -50 -9 -11
-44 -54 -78 -95 -34 -41 -78 -95 -98 -119 -21 -24 -43 -54 -51 -65 -8 -12 -18
-23 -22 -26 -3 -3 -33 -39 -67 -80 -56 -70 -136 -169 -175 -215 -9 -11 -30
-38 -47 -60 l-32 -40 949 -3 c904 -3 1293 2 1293 17 0 4 -35 6 -77 6 -43 -1
-84 1 -90 3 -10 3 -13 59 -13 232 0 170 3 230 13 237 6 5 42 9 80 8 l67 -1 0
73 c0 87 -11 82 184 86 92 1 141 6 143 13 6 17 -293 30 -312 14 -11 -9 -54
-10 -170 -5 -85 4 -157 11 -160 15 -2 4 66 11 152 15 163 7 187 11 177 27 -4
5 58 8 159 6 128 -2 163 0 160 10 -4 9 -46 12 -163 12 -87 0 -160 4 -162 9 -4
11 -1556 24 -1580 13z m1540 -39 c-21 -2 -57 -2 -80 0 -24 2 -7 4 37 4 44 0
63 -2 43 -4z"/>
<path d="M29878 773 c23 -2 61 -2 85 0 23 2 4 4 -43 4 -47 0 -66 -2 -42 -4z"/>
<path d="M30118 763 c23 -2 61 -2 85 0 23 2 4 4 -43 4 -47 0 -66 -2 -42 -4z"/>
<path d="M29638 23 c23 -2 61 -2 85 0 23 2 4 4 -43 4 -47 0 -66 -2 -42 -4z"/>
</g>
</svg>
